<svg width="1612" height="2434" viewBox="0 0 1612 2434" fill="none" xmlns="http://www.w3.org/2000/svg">
<path d="M973.543 1627.97L976.041 1638.48L973.126 1654.76L976.874 1670.52L973.126 1683.13L974.792 1694.69L926.073 1694.16L922.742 1801.85L937.732 1829.17L952.723 1850.18L909.417 1863.84L853.203 1859.11L837.38 1843.35L742.857 1844.4L739.526 1847.03L725.785 1831.79L710.794 1830.74L696.637 1836.52L685.394 1842.83L683.312 1821.81L687.06 1791.87L695.388 1760.88L696.637 1746.69L704.548 1716.22L710.378 1702.57L724.119 1680.5L732.031 1665.27L734.529 1640.58L733.28 1621.14L726.618 1609.06L720.372 1588.57L714.958 1568.61L716.208 1561.25L723.286 1548.12L716.624 1515.55L711.627 1492.96L699.968 1471.42L702.466 1465.12L712.044 1460.39L719.122 1460.92L727.45 1457.24L796.989 1457.77L802.402 1482.46L809.065 1502.94L814.478 1513.97L823.222 1531.31L839.046 1528.68L846.541 1523.96L859.449 1528.68L863.197 1520.28L869.443 1500.84L884.017 1499.27L885.266 1493.49H897.342L895.26 1505.57L923.575 1505.04L923.991 1526.58L928.572 1539.19L924.824 1559.68L926.49 1580.69L933.985 1593.3L932.319 1633.22L938.149 1630.07L948.142 1631.12L962.716 1625.87L973.543 1627.97Z" fill="#ECECEC"/>
<path d="M699.136 1454.61L692.89 1429.4L702.467 1414.69L709.546 1408.91L718.29 1420.47L709.962 1427.82L705.798 1436.23L704.965 1450.94L699.136 1454.61Z" fill="#ECECEC"/>
<path d="M1113.87 1409.44L1111.37 1409.96V1408.39L1103.04 1376.34L1103 1376.03L1102.63 1370.56L1096.8 1355.33L1111.37 1357.95L1118.45 1338.52L1131.36 1340.62L1132.61 1353.75L1137.6 1361.63V1372.66L1131.78 1379.49L1122.2 1397.35L1113.87 1409.44Z" fill="#ECECEC"/>
<path d="M496.765 866.254L495.932 877.286L501.345 897.248L496.765 910.906L499.263 919.837L487.604 940.85L480.525 951.356L475.945 972.369L476.778 993.907L475.529 1048.02L455.958 1052.22L450.128 1029.1L451.377 951.356L446.381 944.527L445.548 927.717L437.22 916.16L430.141 906.179L433.056 888.318L441.384 884.64L445.964 869.932L457.623 866.78L462.62 856.798L470.532 846.817H478.86L496.765 866.254Z" fill="#ECECEC"/>
<path d="M420.98 755.937L418.898 772.222L422.23 787.456L435.138 809.519L435.971 825.804L463.037 833.684L462.62 856.798L457.624 866.779L445.964 869.931L441.384 884.64L433.056 888.318L412.652 887.792L401.826 885.166L394.331 890.419L383.921 887.792L343.114 889.368L342.281 908.805L345.612 934.02L329.372 925.615L318.546 926.666L310.218 935.071L299.808 928.242L295.644 916.685L285.234 909.33L283.568 889.893L290.231 875.71L289.398 864.153L308.136 836.311L311.884 813.197L318.13 804.791L329.372 809.519L339.366 802.69L342.697 793.76L360.602 779.051L365.183 768.544L387.252 754.361L400.16 749.633L405.99 755.937H420.98Z" fill="#ECECEC"/>
<path d="M1000.19 1857.53L1008.1 1884.33L1012.68 1890.63L1019.35 1910.07L1044.75 1946.84L1054.32 1950.52L1053.91 1962.6L1060.15 1984.14L1078.06 1989.39L1092.22 2004.62L1058.49 2029.31L1036.84 2054.53L1028.51 2077.12L1021.01 2089.73L1008.52 2092.35L1003.52 2108.64L1001.03 2119.14L986.035 2126.5L967.297 2124.92L956.887 2115.47L947.31 2111.79L935.651 2119.14L929.405 2135.43L918.162 2145.41L906.503 2160.64L889.847 2164.32L885.266 2152.24L887.765 2131.75L875.273 2099.71L869.443 2094.45L871.942 1996.22L894.844 1995.17L898.175 1874.87L915.664 1873.82L951.89 1861.74L960.218 1875.92L975.625 1862.79H982.704L996.029 1854.91L1000.19 1857.53Z" fill="#ECECEC"/>
<path d="M973.959 968.692L990.199 981.825L1003.11 995.483L1003.52 1006.51L1019.76 1023.85L1029.76 1038.56L1035.59 1058.52L1053.49 1072.18L1057.24 1082.69L1049.74 1086.36L1034.34 1085.84L1016.85 1082.16L1008.1 1084.79L1004.36 1093.19L996.861 1094.24L987.7 1086.89L961.467 1103.7L950.641 1100.55L947.31 1103.17L940.647 1123.66L922.742 1116.83L905.67 1113.68L890.679 1101.07L871.108 1089.52L858.616 1100.55L849.456 1117.36L847.374 1141L832.383 1139.42L816.144 1133.64L802.402 1151.5L789.91 1183.02L787.412 1173.04L786.163 1157.81L775.336 1146.78L766.592 1129.44L764.51 1117.36L753.267 1099.5L755.349 1089.52L752.851 1075.33L754.516 1049.07L760.346 1043.29L772.005 1009.14L791.16 1006.51L795.324 997.584L799.488 998.635L805.317 1005.99L834.882 993.382L844.875 980.249L856.951 968.166L854.452 956.609L861.115 953.457L884.017 955.559L905.67 939.799L922.326 903.027L933.985 889.368L948.975 883.59L951.89 897.773L965.631 918.786V932.97L962.3 946.628L963.966 957.135L971.877 967.116L973.959 968.692Z" fill="#ECECEC"/>
<path d="M285.234 909.33L295.644 916.685L299.808 928.242L310.218 935.071L318.546 926.666L329.372 925.615L345.612 934.02L351.858 982.35L341.864 1010.19L335.618 1048.54L345.612 1077.43L344.779 1091.09H333.953L317.713 1084.79H302.306L274.408 1091.09L258.168 1100.55L234.85 1113.15L230.269 1112.1L231.935 1084.26L234.433 1080.06L233.6 1066.93L223.607 1052.74L216.112 1050.64L209.449 1041.19L214.446 1025.95L212.364 1009.67L213.197 1000.21H216.944L218.61 985.502L216.944 978.673L219.026 973.945L227.771 970.268L221.941 942.951L216.528 929.293L218.61 917.735L223.19 915.109L226.522 911.957L232.768 917.21H251.089L255.253 907.754L259.417 908.28L266.08 904.602L269.827 918.786L275.24 914.584L285.234 909.33Z" fill="#ECECEC"/>
<path d="M772.006 1009.14L760.346 1043.29L754.517 1049.07L752.851 1075.33L755.35 1089.52L753.268 1099.5L764.51 1117.36L766.592 1129.44L775.337 1146.78L786.163 1157.81L787.412 1173.04L789.911 1183.02L788.245 1200.88L769.507 1193L750.353 1184.07L720.788 1183.02L717.874 1180.92L703.716 1185.12L689.558 1180.92L678.316 1183.02L639.59 1182.5L643.338 1155.71L633.761 1133.12L622.934 1127.86L618.354 1112.63L612.108 1107.9L612.524 1098.45L618.354 1074.28L629.597 1041.71H636.259L650.417 1021.75L659.161 1021.22L672.486 1035.41L688.726 1023.85L690.808 1009.67L696.221 996.008L699.552 979.198L712.044 965.54L716.624 941.9L721.621 934.02L724.952 916.685L730.782 895.147L750.353 868.881L751.602 857.849L754.1 851.545L744.523 838.412L745.356 827.38L751.602 825.804L761.179 847.343L763.261 869.406L762.428 891.995L775.753 922.463H762.428L755.766 924.565L744.94 921.413L739.943 937.172L754.1 957.135L764.51 962.913L767.842 976.571L775.337 999.686L772.006 1009.14Z" fill="#ECECEC"/>
<path d="M1057.24 1082.69L1071.81 1110.53L1082.64 1114.73L1088.89 1108.95L1099.71 1111.05L1112.62 1104.22L1118.45 1118.41L1139.69 1141L1138.44 1180.4L1148.01 1185.12L1140.1 1196.68L1131.36 1206.14L1122.2 1223.47L1117.2 1239.23L1115.95 1266.02L1110.54 1279.16L1110.12 1304.37L1103.46 1313.83L1102.63 1333.79L1099.3 1336.42L1096.8 1355.33L1102.63 1370.56L1103.04 1375.82L1098.05 1429.92L1104.29 1448.84L1100.13 1463.02L1107.62 1487.18L1121.78 1505.57L1124.7 1523.96L1131.36 1532.89L1130.11 1538.66L1126.36 1537.09L1094.3 1542.87L1088.05 1547.07L1080.97 1568.61L1085.97 1583.32L1081.39 1623.24L1077.64 1656.86L1083.89 1663.17L1100.13 1676.3L1106.79 1670L1107.62 1706.24H1089.72L1080.56 1687.86L1072.23 1673.15L1054.32 1668.42L1049.33 1651.08L1034.75 1661.59L1016.43 1656.86L1008.52 1641.63L993.947 1638.48L982.704 1639L981.455 1628.49L973.543 1627.97L962.717 1625.87L948.143 1631.12L938.149 1630.07L932.32 1633.22L933.985 1593.3L926.49 1580.69L924.824 1559.68L928.572 1539.19L923.992 1526.58L923.575 1505.04L895.26 1505.57L897.342 1493.49H885.266L884.017 1499.27L869.443 1500.84L863.197 1520.28L859.45 1528.68L846.541 1523.96L839.046 1528.68L823.223 1531.31L814.478 1513.97L809.065 1502.94L802.403 1482.46L796.99 1457.77L727.451 1457.24L719.123 1460.92L712.044 1460.39L702.467 1465.12L699.136 1454.61L704.965 1450.94L705.798 1436.23L709.962 1427.82L718.29 1420.47L724.536 1424.14L732.864 1411.01L745.772 1411.54L747.022 1420.99L755.766 1426.77L769.924 1405.76L783.665 1389.47L789.494 1378.44L789.078 1350.6L799.488 1318.03L810.314 1300.69L825.721 1284.41L828.636 1273.9L829.052 1261.3L832.8 1249.74L831.551 1230.3L834.466 1200.36L839.046 1179.35L846.125 1161.48L847.374 1141L849.456 1117.36L858.617 1100.55L871.109 1089.52L890.68 1101.07L905.67 1113.68L922.742 1116.83L940.648 1123.66L947.31 1103.17L950.641 1100.55L961.468 1103.7L987.701 1086.89L996.862 1094.24L1004.36 1093.19L1008.1 1084.79L1016.85 1082.16L1034.34 1085.84L1049.74 1086.36L1057.24 1082.69Z" fill="#ECECEC"/>
<path d="M847.374 1141L846.125 1161.48L839.046 1179.35L834.466 1200.36L831.551 1230.3L832.8 1249.74L829.052 1261.3L828.636 1273.9L825.721 1284.41L810.314 1300.69L799.488 1318.03L789.078 1350.6L789.494 1378.44L783.665 1389.47L769.924 1405.76L755.766 1426.77L747.022 1420.99L745.772 1411.54L732.864 1411.01L724.536 1424.15L718.29 1420.47L709.546 1408.91L702.467 1414.69L692.89 1429.4L673.735 1393.68L691.64 1374.76L682.896 1352.7L691.224 1344.3L707.047 1340.09L708.713 1324.86L721.621 1341.14L742.441 1342.72L749.52 1326.96L752.435 1304.37L749.936 1278.11L738.694 1258.14L749.104 1218.74L743.274 1212.44L725.785 1215.07L719.123 1197.73L720.788 1183.02L750.353 1184.07L769.507 1193L788.245 1200.88L789.911 1183.02L802.403 1151.5L816.144 1133.64L832.384 1139.42L847.374 1141Z" fill="#ECECEC"/>
<path d="M1424.5 872.558L1416.59 890.944L1411.18 884.64L1405.77 887.267L1392.44 886.742L1391.61 876.235L1389.53 866.779L1397.02 851.02L1404.93 836.311L1414.93 839.463L1422.01 831.057L1427.84 841.564L1427.42 855.222L1414.51 863.627L1424.5 872.558Z" fill="#ECECEC"/>
<path d="M597.95 13.1331L593.786 30.4686L597.95 62.5132L593.37 90.3551L580.045 109.267L582.544 134.482L601.282 154.97L601.698 162.85L615.856 176.508L626.682 236.92L634.594 266.863L636.259 282.623L632.928 309.939L634.594 325.699L632.095 344.085L634.594 365.098L625.433 379.282L639.59 403.972L640.423 418.156L649.168 437.067L659.578 430.763L678.316 446.523L688.726 467.536L610.442 532.15L543.818 598.341L511.339 613.049L485.522 616.727L485.106 595.189L474.28 589.41L459.706 579.954L454.292 564.195L376.426 490.65L298.975 417.105L213.613 335.155L214.03 328.851L214.446 326.75L214.862 286.825L251.922 261.61L274.408 256.357L293.146 247.426L301.89 230.616L328.54 217.483L329.789 192.268L342.697 189.116L353.107 177.033L382.672 171.255L386.836 158.122L381.006 150.767L373.094 115.045L371.845 94.5578L363.934 73.0196L385.17 54.6334L409.321 48.8548L423.062 35.1964L444.299 24.69L481.775 18.9116L518.418 16.285L529.661 21.0129L550.064 7.87985L573.799 7.35449L582.96 15.2343L597.95 13.1331Z" fill="#ECECEC"/>
<path d="M1422.01 831.057L1414.93 839.463L1404.93 836.311L1396.61 825.279L1386.2 805.842L1375.37 794.81L1369.12 783.253L1348.3 769.595L1332.06 769.07L1326.23 762.241L1312.91 770.12L1297.92 754.886L1291.67 780.101L1264.19 772.747L1261.28 759.614L1269.6 709.708L1270.85 687.645L1277.93 677.139L1294.59 671.36L1305.83 652.448L1320.82 691.322L1328.73 722.316L1342.06 738.601L1375.37 770.646L1389.11 789.557L1402.43 809.519L1409.93 821.076L1422.01 831.057Z" fill="#ECECEC"/>
<path d="M1332.06 769.07L1348.3 769.595L1369.12 783.254L1375.37 794.811L1386.2 805.842L1396.61 825.279L1404.93 836.311L1397.02 851.02L1389.53 866.78L1391.61 876.235L1392.44 886.742L1405.77 887.267L1411.18 884.64L1416.59 890.944L1411.6 902.501L1420.76 921.413L1429.92 937.698L1439.08 949.78L1516.94 989.705L1536.93 989.179L1471.97 1090.57L1441.58 1092.14L1420.76 1115.78L1405.77 1116.31L1399.52 1127.34H1383.28L1373.7 1115.78L1352.05 1129.97L1345.39 1144.15L1329.56 1141L1324.15 1137.32L1318.74 1138.37L1311.24 1137.85L1281.26 1109.48H1264.61L1256.69 1098.45L1256.28 1079.53L1244.2 1073.76L1229.63 1036.98L1218.8 1029.1L1214.64 1015.45L1202.15 999.16L1187.57 996.534L1195.48 977.622L1207.98 976.572L1211.31 966.591L1210.47 940.324V936.122L1216.72 900.925L1227.55 891.47L1229.63 877.811L1239.21 851.545L1252.95 835.26L1261.28 801.64L1264.19 772.747L1291.67 780.102L1297.92 754.886L1312.91 770.121L1326.23 762.241L1332.06 769.07Z" fill="#ECECEC"/>
<path d="M720.788 1183.02L719.123 1197.73L725.785 1215.07L743.274 1212.44L749.104 1218.74L738.694 1258.14L749.936 1278.11L752.435 1304.37L749.52 1326.96L742.441 1342.72L721.621 1341.14L708.713 1324.86L707.047 1340.09L691.224 1344.3L682.896 1352.7L691.64 1374.76L673.735 1393.68L649.584 1359.53L634.177 1331.69L619.603 1297.02L620.436 1285.46L625.849 1274.95L631.262 1250.26L636.259 1225.05L644.171 1223.47H678.316V1183.02L689.558 1180.92L703.716 1185.12L717.874 1180.92L720.788 1183.02Z" fill="#ECECEC"/>
<path d="M412.652 887.792L410.986 898.299L420.564 915.634V940.324L423.062 966.59L428.892 979.198L423.478 1009.14L425.56 1025.95L431.806 1047.49L437.22 1059.57L400.16 1079.01L386.835 1090.57L365.599 1100.55L344.779 1091.09L345.612 1077.43L335.618 1048.54L341.864 1010.19L351.858 982.35L345.612 934.02L342.28 908.805L343.113 889.368L383.92 887.792L394.33 890.419L401.826 885.166L412.652 887.792Z" fill="#ECECEC"/>
<path d="M141.992 839.463L143.241 852.07H146.989L153.235 847.342L156.982 848.393L163.645 857.323L173.638 859.95L179.884 852.596L187.796 847.868L193.209 843.14L197.79 844.19L203.203 851.545L205.701 861.001L215.278 875.185L210.698 883.59L209.449 894.621L214.446 891.469L217.36 895.147L216.111 905.128L223.19 915.109L218.61 917.735L216.528 929.293L221.941 942.951L227.77 970.267L219.026 973.945L216.944 978.673L218.61 985.502L216.944 1000.21H213.196L206.534 999.16L201.954 1012.82H195.291L190.711 1005.46L192.376 991.806L182.383 971.318L176.553 974.995L171.14 976.046L164.894 977.622L165.31 965.54L161.563 956.609L162.396 946.628L157.399 932.444L150.736 920.362H131.998L126.585 926.666L119.923 927.717L115.759 935.071L113.26 944.001L100.352 959.236L90.3582 939.274L81.1976 926.141L75.3679 921.413L69.5382 914.584L67.0399 899.875L63.7087 892.52L56.6299 886.741L67.4562 870.456L74.535 870.982L80.781 865.729L85.7779 865.203L89.5256 861.001L87.8599 849.969L90.3582 846.292L90.7747 834.735L102.018 835.26L119.09 843.14L124.087 842.615L125.752 838.937L138.661 841.564L141.992 839.463Z" fill="#ECECEC"/>
<path d="M17.4883 815.823L20.8197 800.589L46.22 800.064L51.6331 791.658L59.1283 791.133L68.2891 799.538H75.368L83.2797 794.285L87.86 803.741L77.45 811.621L67.4563 810.57L57.4628 803.741L48.7183 811.621H44.5543L38.7248 816.349L17.4883 815.823Z" fill="#ECECEC"/>
<path d="M90.775 834.735L90.3584 846.292L87.8601 849.969L89.5258 861.001L85.7781 865.204L80.7813 865.729L74.5353 870.982L67.4564 870.457L56.6301 886.742L44.5544 873.083L34.561 870.457L29.1478 861.001L29.5641 855.748L22.4853 848.919L20.8198 841.564L33.3118 836.311L41.2233 837.362L47.4693 833.159L90.775 834.735Z" fill="#ECECEC"/>
<path d="M678.316 1183.02V1223.47H644.171L636.259 1225.05L631.679 1220.32L639.59 1182.5L678.316 1183.02Z" fill="#ECECEC"/>
<path d="M1399.52 1127.34L1379.12 1165.16L1379.95 1288.09L1393.69 1315.93L1377.03 1329.59L1371.2 1343.77L1362.04 1345.87L1358.71 1370.04L1350.8 1383.7L1346.22 1405.76L1336.64 1416.79L1302.92 1383.17L1301.67 1363.73L1216.3 1294.92L1217.97 1270.23L1212.14 1257.09V1255.52L1218.8 1241.86L1230.46 1219.79L1239.21 1195.1L1228.38 1156.23L1225.46 1139.42L1214.22 1115.78L1228.38 1095.82L1244.2 1073.76L1256.28 1079.53L1256.69 1098.45L1264.61 1109.48H1281.26L1311.24 1137.84L1318.74 1138.37L1324.15 1137.32L1329.56 1141L1345.39 1144.15L1352.05 1129.97L1373.7 1115.78L1383.28 1127.34H1399.52Z" fill="#ECECEC"/>
<path d="M213.196 1000.21L212.364 1009.67L214.446 1025.95L209.449 1041.19L216.111 1050.64L223.606 1052.74L233.6 1066.93L234.433 1080.06L231.934 1084.26L230.269 1112.1L224.023 1112.63L199.872 1096.34L178.219 1070.6L158.232 1052.22L142.408 1030.68L148.238 1019.65L149.487 1009.67L160.314 991.806L171.14 976.046L176.553 974.996L182.383 971.318L192.376 991.806L190.711 1005.46L195.291 1012.82H201.954L206.534 999.16L213.196 1000.21Z" fill="#ECECEC"/>
<path d="M979.373 194.369L972.294 210.654L976.458 225.363L971.878 245.85L980.206 273.167L985.619 392.94L989.783 517.441L991.865 584.682H965.215V598.866L871.109 534.251L777.419 469.637L754.517 488.023L738.694 500.631L725.369 482.245L688.726 467.536L678.316 446.523L659.578 430.763L649.168 437.067L640.423 418.156L639.59 403.972L625.433 379.282L634.594 365.098L632.095 344.085L634.594 325.699L632.928 309.939L636.259 282.623L634.594 266.863L626.682 236.92L637.508 229.565L639.174 214.856L636.676 201.198L651.666 188.065L658.328 177.033L669.155 167.577L669.571 141.837L696.221 153.394L705.798 150.242L724.536 156.02L754.933 171.255L766.592 201.198L786.996 207.502L819.475 221.685L844.459 238.496L854.869 229.565L865.279 214.331L858.617 188.59L864.863 171.78L880.27 156.02L895.676 151.818L926.49 158.647L934.818 173.356L943.146 173.881L950.641 179.66L973.127 183.337L979.373 194.369Z" fill="#ECECEC"/>
<path d="M1048.08 2289.35L1039.75 2293.03L1024.34 2266.76L1037.67 2245.75L1050.58 2232.61L1061.82 2225.26L1070.98 2235.77L1078.06 2246.27L1070.15 2262.56L1065.57 2273.59L1052.66 2278.84L1048.08 2289.35Z" fill="#ECECEC"/>
<path d="M363.933 73.0195L371.845 94.5577L373.094 115.045L381.006 150.767L386.835 158.122L382.671 171.255L353.107 177.033L342.697 189.115L329.788 192.267L328.539 217.483L301.89 230.616L293.145 247.426L274.407 256.356L251.922 261.61L214.862 286.825L214.446 326.749H210.698L211.114 344.61L196.957 345.661L189.462 353.541H179.052L170.724 348.813L151.569 352.49L143.658 378.756L136.162 381.383L124.92 423.934L92.0241 460.181L83.6961 506.935L73.7024 522.169L70.7878 534.251L18.7378 536.878H18.3213L19.5704 521.118L28.7313 512.188L36.643 494.327L35.3938 482.77L43.7218 459.13L57.0464 437.592L64.9581 432.339L71.6204 412.902L72.4533 394.516L81.1978 374.028L97.021 361.421L112.011 327.275L112.428 326.749L124.503 313.616L145.74 309.939L164.061 286.825L175.72 277.895L195.291 249.527L190.294 208.027L199.455 178.609L203.203 160.748L218.193 138.159L240.679 122.925L257.751 108.741L273.158 74.0702L280.653 53.0574L296.893 53.5826L309.801 67.7663L331.038 65.665L353.94 73.0195H363.933Z" fill="#ECECEC"/>
<path d="M1584.4 1716.75L1586.07 1757.2L1591.48 1772.96L1588.57 1789.24L1583.57 1798.7L1576.91 1779.26L1571.91 1789.24L1575.24 1813.93L1572.33 1828.64L1565.25 1836L1562.33 1864.89L1551.09 1904.29L1536.93 1950.52L1519.03 2014.61L1506.95 2061.36L1494.04 2100.76L1474.89 2108.64L1453.65 2122.82L1441.16 2114.42L1423.67 2102.33L1418.67 2084.47V2054.53L1412.43 2027.74L1411.6 2003.05L1417.01 1978.88L1427.84 1973.11L1428.67 1962.07L1440.74 1936.33L1444.07 1914.79L1439.49 1899.03L1436.16 1877.5L1435.75 1846.5L1444.91 1827.59L1449.07 1806.05L1460.73 1805L1474.06 1798.17L1483.22 1791.87L1493.21 1791.34L1507.37 1772.43L1527.77 1751.42L1535.27 1734.61L1532.77 1719.9L1542.76 1724.1L1556.5 1700.99L1557.75 1680.5L1566.08 1665.27L1573.58 1679.98L1579.4 1694.16L1584.4 1716.75Z" fill="#ECECEC"/>
<path d="M511.339 613.049L511.755 690.797L498.847 713.386L497.181 734.398L476.361 739.652L444.298 742.278L435.97 754.361L420.98 755.937H405.99L400.16 749.633L387.252 754.361L365.182 768.544L360.602 779.051L342.697 793.76L339.366 802.69L329.372 809.519L318.129 804.791L311.883 813.197L308.136 836.311L289.398 864.153L290.23 875.71L283.568 889.893L285.234 909.33L275.24 914.584L269.827 918.786L266.079 904.602L259.417 908.28L255.253 907.754L251.089 917.21H232.767L226.521 911.957L223.19 915.109L216.111 905.128L217.36 895.147L214.446 891.469L209.449 894.621L210.698 883.59L215.278 875.185L205.701 861.001L203.203 851.545L197.79 844.19L193.209 843.14L187.796 847.868L179.884 852.596L173.638 859.95L163.645 857.323L156.982 848.393L153.235 847.342L146.989 852.07H143.241L141.992 839.463L143.241 828.956L141.159 816.349L132.831 806.893L128.251 787.456L127.418 766.443L135.33 760.139L139.494 740.177L146.989 739.652L163.228 749.107L176.553 742.278L185.298 744.379L189.045 737.025L282.735 736.5L288.148 712.86L283.984 708.658L273.574 563.144L263.581 417.63L298.975 417.105L376.425 490.65L454.292 564.194L459.705 579.954L474.279 589.41L485.106 595.188L485.522 616.727L511.339 613.049Z" fill="#ECECEC"/>
<path d="M1163 2161.17H1145.93L1144.68 2145.94L1142.18 2130.7L1140.52 2118.62L1146.35 2081.32L1141.77 2057.16L1132.61 2009.88L1158.42 1971.53L1165.5 1947.36L1168.83 1944.21L1172.58 1924.25L1169.25 1914.27L1170.92 1889.05L1176.33 1865.94L1178 1822.86L1166.34 1812.36L1155.09 1809.73L1150.51 1801.33L1139.69 1794.5L1120.12 1795.02L1119.28 1782.41L1117.62 1758.25L1189.24 1730.41L1202.56 1746.69L1208.81 1743.54L1217.97 1751.95L1218.8 1765.6L1213.39 1781.36L1214.22 1805L1228.8 1826.02L1236.71 1802.38L1247.12 1795.55L1246.7 1751.95L1237.54 1727.78L1229.63 1716.75H1227.96L1225.46 1678.4L1231.71 1646.36L1240.87 1645.3L1268.77 1654.76L1275.02 1650.56L1291.26 1649.51L1300 1639.53L1314.16 1640.05L1339.97 1626.92L1359.13 1607.48L1362.88 1622.19L1360.79 1655.81L1362.88 1685.75L1362.04 1738.29L1365.38 1754.57L1357.46 1778.74L1347.47 1802.38L1332.06 1823.39L1309.99 1836L1282.93 1852.28L1255.45 1888.53L1246.28 1894.83L1228.8 1919L1219.22 1926.35L1215.89 1950.52L1225.88 1976.26L1229.63 1995.69V2006.2L1233.79 2004.1L1231.71 2037.19L1227.13 2052.95L1232.13 2058.73L1227.96 2072.92L1217.97 2085L1198.4 2096.03L1169.67 2114.42L1159.26 2127.02L1160.51 2141.21L1165.92 2143.31L1163 2161.17Z" fill="#ECECEC"/>
<path d="M298.975 417.105L263.581 417.63L273.575 563.144L283.985 708.658L288.149 712.86L282.735 736.5L189.045 737.025L185.298 744.38L176.553 742.278L163.229 749.108L146.989 739.652L139.494 740.177L135.33 760.139L127.418 766.443L112.428 743.329L98.2703 718.114L83.28 709.183L72.0371 699.727H59.1286L47.4694 707.082L36.2266 704.455L27.8986 714.962L26.2331 697.101L32.8954 680.291L36.2266 648.771L34.5611 615.151L32.0626 598.34L34.5611 581.53L28.7314 565.771L17.0723 551.062L22.4854 540.03H112.844L109.097 491.175L115.343 473.839L136.995 471.213L137.828 384.535L212.78 386.636L213.613 335.155L298.975 417.105Z" fill="#ECECEC"/>
<path d="M1227.96 1716.75H1229.63L1237.54 1727.78L1246.7 1751.95L1247.12 1795.55L1236.71 1802.38L1228.8 1826.02L1214.22 1805L1213.39 1781.36L1218.8 1765.6L1217.97 1751.95L1208.81 1743.54L1202.56 1746.69L1189.24 1730.41L1177.16 1722L1185.49 1690.48L1192.99 1678.93L1189.24 1650.56L1194.65 1623.24L1198.82 1614.31L1193.4 1585.94L1182.58 1570.71L1205.48 1577.01L1209.64 1585.94L1209.23 1590.15L1216.72 1611.68L1217.55 1652.13L1210.06 1671.05L1216.72 1695.74L1215.89 1710.44L1220.88 1720.43L1220.47 1733.03L1224.22 1740.39L1228.38 1731.98L1236.29 1745.12L1237.12 1740.91L1232.96 1723.05L1228.38 1721.48L1227.96 1716.75Z" fill="#ECECEC"/>
<path d="M952.723 1850.18L971.877 1842.83L986.868 1844.4L996.028 1852.28V1854.91L982.704 1862.79H975.625L960.218 1875.92L951.89 1861.74L915.663 1873.82L898.174 1874.87L894.843 1995.17L871.941 1996.22L869.443 2094.45L864.862 2218.96L844.042 2236.29L831.967 2238.92L817.809 2232.61L807.399 2229.99L804.068 2215.8L795.74 2206.35L784.081 2223.16L767.841 2197.42L759.513 2173.25L755.349 2140.16L750.352 2115.99L743.69 2063.99L744.106 2023.54L741.608 2005.15L732.864 1990.97L721.204 1963.12L709.545 1922.67L704.965 1901.66L686.643 1868.57L685.394 1842.83L696.637 1836.52L710.794 1830.74L725.785 1831.79L739.526 1847.03L742.857 1844.4L837.38 1843.35L853.203 1859.11L909.417 1863.84L952.723 1850.18Z" fill="#ECECEC"/>
<path d="M754.517 488.023L761.179 540.555L770.34 549.486L770.756 559.992L780.75 571.549L775.753 586.258L768.258 654.55L767.425 698.677L738.277 730.196L728.7 774.848L738.694 787.456V808.994L754.1 809.519L751.602 825.804L745.356 827.38L744.523 838.412L740.359 838.937L724.12 802.165L718.29 800.589L700.385 819.501L682.063 809.519L669.571 807.943L662.909 812.671L649.168 811.621L635.426 825.804L623.351 826.855L595.036 809.519L583.793 817.399L571.717 816.874L562.973 804.266L539.654 791.658L514.254 795.861L508.424 802.69L505.093 822.127L498.431 835.785L496.765 866.254L478.86 846.817H470.532L462.62 856.798L463.037 833.684L435.971 825.804L435.138 809.519L422.23 787.456L418.898 772.222L420.98 755.937L435.971 754.361L444.299 742.278L476.362 739.652L497.182 734.398L498.847 713.386L511.756 690.797L511.339 613.049L543.818 598.34L610.442 532.15L688.726 467.536L725.369 482.244L738.694 500.631L754.517 488.023Z" fill="#ECECEC"/>
<path d="M744.523 838.412L754.1 851.545L751.602 857.849L750.352 868.881L730.782 895.147L724.952 916.685L721.621 934.021L716.624 941.9L712.044 965.54L699.552 979.198L696.22 996.009L690.807 1009.67L688.725 1023.85L672.486 1035.41L659.161 1021.22L650.416 1021.75L636.259 1041.71H629.596L618.354 1074.28L612.524 1098.45L587.956 1110.53L579.212 1108.95L570.051 1116.31L551.313 1115.78L538.405 1094.24L530.493 1070.08L513.837 1048.02H496.348H475.528L476.778 993.907L475.945 972.369L480.525 951.356L487.604 940.85L499.263 919.837L496.765 910.906L501.345 897.248L495.932 877.286L496.765 866.254L498.43 835.786L505.093 822.127L508.424 802.69L514.254 795.861L539.654 791.659L562.972 804.266L571.717 816.874L583.792 817.399L595.035 809.52L623.35 826.855L635.426 825.804L649.167 811.621L662.908 812.671L669.571 807.944L682.063 809.52L700.384 819.501L718.29 800.589L724.119 802.165L740.359 838.937L744.523 838.412Z" fill="#ECECEC"/>
<path d="M1130.11 1297.54L1139.27 1316.45L1138.02 1336.42L1131.36 1340.62L1118.45 1338.52L1111.37 1357.95L1096.8 1355.33L1099.3 1336.42L1102.63 1333.79L1103.46 1313.83L1110.12 1304.37L1115.95 1308.05L1130.11 1297.54Z" fill="#ECECEC"/>
<path d="M214.446 326.75L214.029 328.851L213.613 335.155L212.78 386.636L137.828 384.535L136.995 471.213L115.343 473.839L109.097 491.175L112.844 540.03H22.4854L17.0723 551.062L18.3214 536.878H18.738L70.788 534.251L73.7026 522.169L83.6963 506.935L92.0243 460.181L124.92 423.934L136.163 381.383L143.658 378.757L151.569 352.49L170.724 348.813L179.052 353.541H189.462L196.957 345.661L211.115 344.611L210.698 326.75H214.446Z" fill="#ECECEC"/>
<path d="M1264.19 772.747L1261.28 801.64L1252.95 835.26L1239.21 851.545L1229.63 877.811L1227.55 891.469L1216.72 900.925L1210.47 936.122V940.324L1207.14 939.274L1207.56 922.463L1204.23 910.906L1192.15 897.773L1188.41 873.609L1190.9 848.393L1180.08 846.292L1178.41 853.646L1164.25 855.748L1170.5 865.203L1172.58 885.691L1160.09 904.077L1148.85 928.242L1136.77 931.919L1116.78 912.482L1108.04 919.312L1105.96 928.767L1093.88 935.596L1093.05 942.426H1069.73L1066.4 935.596L1049.33 934.02L1041 939.799L1034.34 937.172L1022.26 917.21L1018.1 908.28L1001.03 913.008L994.779 928.242L989.366 958.711L981.038 965.014L973.959 968.692L971.877 967.116L963.966 957.135L962.3 946.628L965.631 932.97V918.786L951.89 897.773L948.975 883.59V875.185L940.231 865.203L939.814 845.767L934.401 832.634L926.49 834.735L928.572 822.127L934.401 808.469L931.486 794.285L938.982 783.779L933.985 775.899L939.398 755.411L949.808 730.196L969.795 732.823L965.215 598.866V584.682H991.864L989.782 517.441H1082.64H1172.17H1264.19L1272.93 550.536L1267.94 556.315L1272.93 591.511L1283.34 631.436L1292.51 639.841L1305.83 652.448L1294.59 671.36L1277.93 677.139L1270.85 687.645L1269.6 709.709L1261.28 759.614L1264.19 772.747Z" fill="#ECECEC"/>
<path d="M1210.47 940.324L1211.31 966.59L1207.98 976.571L1195.48 977.622L1187.57 996.534L1202.15 999.16L1214.64 1015.45L1218.8 1029.1L1229.63 1036.98L1244.2 1073.76L1228.38 1095.82L1214.22 1115.78L1199.65 1131.54H1182.99L1164.25 1139.42L1149.26 1131.54L1139.69 1141L1118.45 1118.41L1112.62 1104.22L1099.71 1111.05L1088.89 1108.95L1082.64 1114.73L1071.81 1110.53L1057.24 1082.69L1053.49 1072.18L1035.59 1058.52L1029.76 1038.56L1019.76 1023.85L1003.52 1006.51L1003.11 995.483L990.199 981.825L973.959 968.692L981.038 965.014L989.366 958.711L994.779 928.242L1001.03 913.008L1018.1 908.28L1022.26 917.21L1034.34 937.172L1041 939.799L1049.33 934.02L1066.4 935.596L1069.73 942.426H1093.05L1093.88 935.596L1105.96 928.767L1108.04 919.311L1116.78 912.482L1136.77 931.919L1148.85 928.242L1160.09 904.077L1172.58 885.691L1170.5 865.203L1164.25 855.748L1178.41 853.646L1180.08 846.292L1190.9 848.393L1188.41 873.608L1192.15 897.773L1204.23 910.906L1207.56 922.463L1207.14 939.274L1210.47 940.324Z" fill="#ECECEC"/>
<path d="M127.418 766.443L128.251 787.456L132.831 806.893L141.159 816.349L143.241 828.956L141.992 839.463L138.661 841.564L125.753 838.937L124.087 842.615L119.09 843.14L102.018 835.26L90.7751 834.735L47.4694 833.159L41.2234 837.362L33.312 836.311L20.82 841.564L17.4886 815.823L38.7251 816.349L44.5546 811.621H48.7186L57.4631 803.741L67.4566 810.57L77.4503 811.621L87.8603 803.741L83.28 794.285L75.3683 799.538H68.2894L59.1286 791.133L51.6334 791.659L46.2203 800.064L20.82 800.589L11.2426 774.323L0 762.766L10.41 755.937L22.0691 732.297L27.8986 714.962L36.2266 704.455L47.4694 707.082L59.1286 699.727H72.0371L83.28 709.183L98.2703 718.114L112.428 743.329L127.418 766.443Z" fill="#ECECEC"/>
<path d="M171.141 976.046L160.314 991.806L149.488 1009.67L148.239 1019.65L142.409 1030.68L136.163 1028.05L119.507 1014.39L107.015 996.534L103.267 983.926L100.353 959.236L113.261 944.002L115.759 935.071L119.923 927.717L126.586 926.666L131.999 920.362H150.737L157.399 932.445L162.396 946.628L161.563 956.609L165.311 965.54L164.895 977.622L171.141 976.046Z" fill="#ECECEC"/>
<path d="M1142.19 2130.7L1144.68 2145.94L1145.93 2161.17L1140.1 2175.88L1126.78 2179.56L1113.87 2161.17L1114.29 2149.61L1121.37 2137.01L1123.86 2127.02L1130.94 2124.92L1142.19 2130.7Z" fill="#ECECEC"/>
<path d="M965.215 598.866L969.795 732.823L949.808 730.196L939.398 755.411L933.985 775.899L938.982 783.779L931.486 794.285L934.401 808.469L928.572 822.127L926.49 834.735L934.401 832.634L939.814 845.767L940.231 865.203L948.975 875.185V883.59L933.985 889.368L922.326 903.027L905.67 939.799L884.017 955.559L861.115 953.457L854.452 956.609L856.951 968.166L844.875 980.249L834.882 993.382L805.317 1005.99L799.488 998.635L795.324 997.584L791.16 1006.51L772.005 1009.14L775.336 999.686L767.841 976.572L764.51 962.913L754.1 957.135L739.942 937.172L744.939 921.413L755.766 924.565L762.428 922.464H775.753L762.428 891.995L763.261 869.406L761.179 847.343L751.602 825.804L754.1 809.52L738.693 808.994V787.456L728.7 774.848L738.277 730.196L767.425 698.677L768.258 654.55L775.753 586.258L780.75 571.549L770.756 559.992L770.34 549.486L761.179 540.555L754.516 488.023L777.418 469.637L871.108 534.251L965.215 598.866Z" fill="#ECECEC"/>
<path d="M433.056 888.318L430.141 906.179L437.22 916.16L445.548 927.717L446.38 944.527L451.377 951.356L450.128 1029.1L455.958 1052.22L437.22 1059.57L431.806 1047.49L425.56 1025.95L423.478 1009.14L428.892 979.198L423.062 966.59L420.564 940.324V915.634L410.986 898.299L412.652 887.792L433.056 888.318Z" fill="#ECECEC"/>
<path d="M669.571 141.837L669.155 167.577L658.328 177.033L651.666 188.065L636.676 201.198L639.174 214.856L637.508 229.565L626.682 236.92L615.856 176.508L601.698 162.849L601.282 154.97L582.544 134.482L580.045 109.267L593.37 90.3551L597.95 62.5132L593.786 30.4685L597.95 13.133L621.685 0L637.092 3.67715V21.0128L655.414 8.40517L657.079 14.7089L646.669 31.5193L647.086 46.7535L654.997 55.1587L652.915 84.5767L638.341 101.387L643.338 119.773L654.997 120.298L660.827 136.583L669.571 141.837Z" fill="#ECECEC"/>
<path d="M1164.25 1293.87L1163.42 1314.35L1158.84 1337.99L1165.5 1351.13L1175.91 1343.25L1189.65 1341.14L1192.57 1345.35L1206.31 1336.94L1196.73 1325.38L1204.64 1310.15L1216.3 1294.92L1301.67 1363.73L1302.92 1383.17L1336.64 1416.79L1324.98 1458.82L1326.23 1477.73L1340.81 1489.81L1341.64 1498.74L1334.56 1519.23L1335.81 1529.21L1334.15 1545.49L1341.64 1566.51L1350.8 1600.13L1359.13 1607.48L1339.97 1626.92L1314.16 1640.05L1300 1639.53L1291.26 1649.51L1275.02 1650.56L1268.77 1654.76L1240.87 1645.3L1231.71 1646.36L1232.13 1645.83L1224.63 1633.22L1223.38 1597.5L1211.31 1579.64L1209.64 1585.94L1205.48 1577.01L1182.58 1570.71L1169.25 1560.73L1154.26 1554.95L1145.1 1549.17L1143.85 1548.12L1132.61 1513.45L1130.94 1492.96L1112.2 1469.85L1118.03 1457.24L1113.45 1443.58L1114.29 1429.4L1110.12 1424.67L1111.37 1409.96L1113.87 1409.44L1122.2 1397.35L1131.77 1379.49L1137.6 1372.66V1361.63L1132.61 1353.75L1131.36 1340.62L1138.02 1336.42L1139.27 1316.45L1130.11 1297.54L1138.44 1293.34L1164.25 1293.87Z" fill="#ECECEC"/>
<path d="M1214.22 1115.78L1225.46 1139.42L1228.38 1156.23L1239.21 1195.11L1230.46 1219.8L1218.8 1241.86L1212.14 1255.52V1257.09L1211.31 1254.99L1198.82 1248.16L1188.82 1256.57L1173.83 1261.3L1163 1280.73L1164.25 1293.87L1138.44 1293.34L1130.11 1297.54L1115.95 1308.05L1110.12 1304.37L1110.54 1279.16L1115.95 1266.02L1117.2 1239.23L1122.2 1223.47L1131.36 1206.14L1140.1 1196.68L1148.01 1185.12L1138.44 1180.4L1139.69 1141L1149.26 1131.54L1164.25 1139.42L1182.99 1131.54H1199.65L1214.22 1115.78Z" fill="#ECECEC"/>
<path d="M1143.85 1548.12L1145.1 1549.17L1154.26 1554.95L1169.25 1560.73L1182.58 1570.71L1193.4 1585.94L1198.82 1614.31L1194.65 1623.24L1189.24 1650.56L1192.99 1678.93L1185.49 1690.48L1177.16 1722L1189.24 1730.41L1117.62 1758.25L1119.28 1782.41L1101.38 1787.14L1087.64 1800.27L1084.31 1811.83L1075.98 1814.98L1054.74 1842.3L1041.42 1864.36L1033.5 1864.89L1026.01 1861.21L1000.19 1857.53L996.028 1854.91V1852.28L986.868 1844.4L971.878 1842.83L952.723 1850.18L937.732 1829.17L922.742 1801.85L926.074 1694.16L974.792 1694.69L973.126 1683.13L976.874 1670.52L973.126 1654.76L976.042 1638.48L973.543 1627.97L981.454 1628.49L982.704 1639L993.946 1638.48L1008.52 1641.63L1016.43 1656.86L1034.75 1661.59L1049.33 1651.08L1054.32 1668.42L1072.23 1673.15L1080.56 1687.86L1089.72 1706.24H1107.62L1106.79 1670L1100.13 1676.3L1083.89 1663.17L1077.64 1656.86L1081.39 1623.24L1085.97 1583.32L1080.97 1568.61L1088.05 1547.07L1094.3 1542.87L1126.36 1537.09L1130.11 1538.66L1128.86 1546.02L1136.77 1548.65L1141.77 1555.48L1145.93 1553.9L1143.85 1548.12Z" fill="#ECECEC"/>
<path d="M1132.61 2009.88L1120.53 2006.2L1112.62 2010.4L1101.38 2004.62H1092.22L1078.06 1989.39L1060.15 1984.14L1053.91 1962.6L1054.32 1950.52L1044.75 1946.84L1019.35 1910.07L1012.68 1890.63L1008.1 1884.33L1000.19 1857.53L1026.01 1861.21L1033.5 1864.89L1041.42 1864.36L1054.74 1842.3L1075.98 1814.98L1084.31 1811.83L1087.64 1800.27L1101.38 1787.14L1119.28 1782.41L1120.12 1795.02L1139.69 1794.5L1150.51 1801.33L1155.09 1809.73L1166.34 1812.36L1178 1822.86L1176.33 1865.94L1170.92 1889.05L1169.25 1914.27L1172.58 1924.25L1168.83 1944.21L1165.5 1947.36L1158.42 1971.53L1132.61 2009.88Z" fill="#ECECEC"/>
<path d="M1393.69 1315.93L1379.95 1288.09L1379.12 1165.16L1399.52 1127.34L1405.77 1116.31L1420.76 1115.78L1441.58 1092.14L1471.97 1090.57L1536.93 989.179L1516.94 989.704L1439.08 949.78L1429.92 937.698L1420.76 921.413L1411.6 902.501L1416.59 890.944L1424.5 872.558L1432.42 878.862L1437.41 893.045L1448.66 907.229H1460.31L1481.97 898.299L1507.37 894.621L1527.77 884.115L1539.43 882.014L1547.76 875.71L1561.08 874.659L1568.58 873.608L1578.99 868.881L1591.48 865.203L1601.89 853.646H1611.05L1611.88 863.102L1610.22 882.539L1611.05 900.4L1606.47 912.482L1600.64 949.255L1590.65 986.552L1576.91 1029.63L1557.75 1079.01L1538.18 1116.83L1510.7 1163.06L1487.38 1190.38L1452.4 1224L1430.33 1249.21L1404.52 1290.19L1399.1 1308.05L1393.69 1315.93Z" fill="#ECECEC"/>
<path d="M1132.61 2009.88L1141.77 2057.16L1146.35 2081.32L1140.52 2118.62L1142.18 2130.7L1130.94 2124.92L1123.86 2127.02L1121.36 2137.01L1114.29 2149.61L1113.87 2161.17L1126.78 2179.56L1140.1 2175.88L1145.93 2161.17H1163L1155.93 2185.86L1151.76 2213.7L1144.68 2228.94L1128.03 2246.27L1123.45 2251L1112.62 2268.34L1105.13 2285.67L1090.55 2309.84L1062.65 2344.51L1045.58 2364.47L1027.67 2380.23L1003.11 2392.84L991.864 2394.94L988.117 2404.39L974.792 2399.14L963.549 2405.44L939.814 2399.14L926.073 2403.34L916.912 2401.24L892.761 2414.9L873.607 2420.15L859.033 2432.76L849.039 2433.81L840.295 2421.73L832.8 2421.2L823.639 2405.97L822.39 2410.7L819.891 2401.77L821.14 2381.8L814.894 2359.22L822.39 2352.91L822.806 2327.17L809.065 2295.65L799.071 2267.29V2266.76L784.081 2223.16L795.74 2206.35L804.068 2215.8L807.399 2229.99L817.809 2232.61L831.967 2238.92L844.042 2236.29L864.862 2218.96L869.443 2094.45L875.272 2099.71L887.764 2131.75L885.266 2152.24L889.846 2164.32L906.502 2160.64L918.162 2145.41L929.404 2135.43L935.65 2119.14L947.31 2111.79L956.887 2115.47L967.297 2124.92L986.035 2126.5L1001.03 2119.14L1003.52 2108.64L1008.52 2092.35L1021.01 2089.73L1028.51 2077.12L1036.84 2054.53L1058.49 2029.31L1092.22 2004.62H1101.38L1112.62 2010.4L1120.53 2006.2L1132.61 2009.88ZM1048.08 2289.35L1052.66 2278.84L1065.57 2273.59L1070.15 2262.56L1078.06 2246.27L1070.98 2235.77L1061.82 2225.26L1050.58 2232.61L1037.67 2245.75L1024.34 2266.76L1039.75 2293.03L1048.08 2289.35Z" fill="#ECECEC"/>
</svg>
