<svg width="1062" height="1704" viewBox="0 0 1062 1704" fill="none" xmlns="http://www.w3.org/2000/svg">
<path d="M668.738 1609.06L684.145 1620.61L697.886 1615.89L718.29 1609.58L729.949 1611.68L711.211 1651.61L697.47 1662.64L680.814 1689.96L678.315 1680.5L650.833 1703.62L647.502 1702.04L635.01 1700.99L637.092 1672.62L645.42 1650.56L647.918 1621.14L656.246 1605.91L668.738 1609.06Z" fill="#ECECEC"/>
<path d="M879.02 698.152L884.017 724.418L900.673 711.81L906.503 725.994L916.08 739.127L911.5 754.361L912.332 783.254L913.165 800.064L918.578 804.267L920.244 833.159L915.247 850.495L918.578 873.084L941.064 890.945L954.389 906.704L967.714 921.413L963.133 929.818L972.71 950.831L974.792 987.603L985.619 980.249L991.865 994.433L998.527 989.705L995.612 1025.43L1007.69 1045.91L1015.6 1058.52L1027.26 1085.84V1113.16L1023.09 1132.59L1015.6 1153.08L1018.51 1181.97L1008.1 1211.92L999.36 1227.68L983.537 1257.62L977.291 1277.06L964.382 1301.22L943.562 1331.69L920.66 1348.5L902.339 1374.24L888.598 1391.05L870.276 1419.94L854.869 1436.75L838.63 1461.97L825.721 1485.08L822.39 1496.11L804.485 1507.67L779.084 1508.72L752.851 1522.91L737.028 1535.51L717.041 1550.22L705.798 1534.99L694.972 1529.21L705.798 1511.87L691.224 1518.18L661.243 1542.34L646.253 1533.41L636.259 1528.16L624.6 1525.53L607.528 1516.08L602.114 1495.06L608.36 1469.85L610.026 1452.51L604.196 1438.85L584.626 1435.18L597.95 1418.37L601.698 1393.68L582.127 1416.79L560.058 1423.09L578.796 1404.71L589.206 1385.27L603.78 1368.46L610.442 1343.77L582.127 1372.14L564.222 1383.7L546.317 1410.49L533.825 1396.83L540.904 1378.97L535.074 1354.28L527.579 1341.67L534.241 1333.79L512.172 1313.3L496.349 1312.78L479.693 1295.97L438.469 1299.12L405.574 1311.2L376.842 1322.76L356.022 1320.66L326.874 1337.99L304.805 1345.35L295.228 1363.21L282.736 1376.87L263.165 1377.92L248.174 1380.54L230.686 1374.76L213.197 1378.44L197.374 1380.02L178.636 1397.88L172.39 1396.3L158.232 1405.76L144.074 1416.27L128.251 1415.21H113.677L96.6045 1393.68L86.6108 1387.37L92.8568 1367.94L104.933 1363.21L111.179 1355.85L113.677 1343.77L123.254 1320.13L126.169 1300.17L123.254 1266.02L124.087 1246.59L129.917 1227.68L126.169 1205.61L127.418 1195.63L120.34 1181.97L123.254 1155.71L115.343 1128.91L114.926 1114.73L122.422 1129.44L120.34 1097.92L129.917 1107.9L134.497 1121.04L136.996 1103.7L130.333 1076.91L129.917 1066.4L126.586 1056.42L131.999 1036.98L138.245 1028.58L143.658 1011.77L144.074 991.806L156.983 967.641L155.317 993.382L168.226 970.268L188.629 958.711L201.954 944.527L221.525 931.92L232.351 929.293L238.181 933.495L258.168 920.888L272.742 917.211L277.322 909.856L283.568 906.704L296.477 907.755L322.294 897.774L336.868 882.539L345.196 864.679L361.435 847.868L364.35 834.21L367.265 815.823L387.668 786.931L393.498 816.349L404.324 809.52L398.078 793.76L407.656 777.475L416.816 784.83L423.062 759.089L437.636 742.279L445.132 729.146L457.207 723.367L458.873 713.911L468.45 717.589L470.116 709.183L480.942 704.456L492.601 699.728L508.008 715.487L518.834 735.449H533.408L547.982 738.602L545.068 720.215L559.642 693.424L570.884 684.493L568.386 676.088L580.462 656.651L595.868 644.569L607.111 648.771L627.515 642.468L628.764 625.132L612.524 614.1L625.433 609.372L640.423 617.778L651.666 631.436L670.404 639.841L677.483 636.689L691.224 647.196L705.798 637.214L714.126 640.366L720.372 633.537L729.533 650.347L721.205 668.734L710.795 682.392L702.883 683.443L704.132 696.576L694.972 713.386L684.562 730.196L685.394 739.652L701.218 758.564L717.874 769.07L728.284 780.627L742.025 800.589H748.687L759.514 809.52L761.596 820.026L781.999 831.058L799.072 819.501L806.567 801.64L813.646 786.406L819.059 768.019L829.885 741.228L829.052 724.943L831.967 714.962L831.551 696.05L837.38 670.31L842.794 663.48L840.295 652.449L847.79 634.588L854.036 616.202L855.702 606.221L865.279 593.613L870.692 610.423L870.276 631.436L875.689 635.638L875.273 649.822L881.935 666.633L881.519 686.069L879.02 698.152Z" fill="#ECECEC"/>
<path d="M211.115 81.4248L220.276 68.8171L239.43 49.9055L239.014 66.7158L238.597 88.254L227.354 87.2033L222.774 98.7605L211.115 81.4248Z" fill="#ECECEC"/>
<path d="M457.624 533.726L459.706 540.555L459.289 550.536L442.217 575.752L421.397 583.106L418.898 579.429L421.813 567.872L433.472 547.385L457.624 533.726Z" fill="#ECECEC"/>
<path d="M292.729 506.935L300.641 515.865L315.631 513.239L320.628 527.422L292.729 534.252L276.49 538.98L263.581 538.454L272.742 519.017H286.067L292.729 506.935Z" fill="#ECECEC"/>
<path d="M410.57 506.935L405.99 525.847L370.18 535.302L338.95 531.1L339.782 518.492L358.937 511.663L373.094 521.644L388.918 519.017L410.57 506.935Z" fill="#ECECEC"/>
<path d="M76.6177 462.283L121.589 465.96L127.418 451.776L170.308 468.061L177.803 490.125L212.78 496.428L240.679 516.391L213.197 528.998L187.796 515.34L166.56 516.391L142.409 513.764L120.756 507.986L94.1063 494.853L77.034 491.701L67.0403 495.903L24.5677 481.72L21.2363 467.536L0 464.909L17.4886 432.865L45.804 434.966L64.1257 448.099L74.1189 450.725L76.6177 462.283Z" fill="#ECECEC"/>
<path d="M845.708 321.497L841.544 431.289L834.882 541.606L815.727 513.764L792.409 506.935L786.163 516.39L756.182 517.441L767.841 490.124L783.248 480.669L779.084 443.896L769.507 416.054L724.952 387.162L705.798 384.535L671.236 353.016L663.741 369.826L654.58 372.453L650 360.37L650.416 345.661L632.928 328.851L658.744 316.769L675.4 317.294L673.735 308.364H639.174L630.013 288.401L609.193 282.097L599.616 265.287L631.262 257.407L643.338 246.376L681.23 260.034L684.978 272.642L690.391 327.275L714.126 347.237L734.946 311.515L762.428 291.553H783.248L803.235 303.11L820.308 315.193L845.708 321.497Z" fill="#ECECEC"/>
<path d="M474.696 185.964L455.958 219.584L438.053 225.888L415.567 219.584L376.009 221.16L355.606 225.888L352.274 251.629L373.094 281.572L386.003 266.338L430.141 254.781L428.059 270.015L417.649 265.287L407.239 285.249L386.003 298.382L407.239 341.459L402.659 353.016L422.646 391.89L421.397 413.953L408.488 423.934L399.744 411.852L412.236 384.535L388.501 397.668L383.088 388.212L386.419 375.079L370.18 355.117L373.094 322.547L356.855 332.528L357.688 371.927L356.855 420.257L341.448 424.985L331.871 415.529L339.782 384.535L337.284 351.965L327.29 351.44L320.628 328.326L331.038 306.262L334.786 279.471L347.278 228.515L351.858 214.856L371.845 189.641L390.583 199.622L420.148 204.35L447.214 202.774L470.532 178.609L474.696 185.964Z" fill="#ECECEC"/>
<path d="M556.31 195.945L555.061 225.363L542.985 221.686L539.238 242.173L548.815 260.034L542.152 264.237L532.992 242.698L525.913 199.622L530.077 172.831L537.572 160.748L539.654 179.135L553.812 181.761L556.31 195.945Z" fill="#ECECEC"/>
<path d="M106.598 166.002L110.762 188.591L127.002 208.027L142.408 201.198L157.399 203.299L171.14 186.489L182.383 183.337L204.868 192.793L224.023 185.439L234.85 138.685L243.594 127.128L250.672 88.7795H277.738L298.558 94.5579L286.066 125.027L304.388 156.546L300.64 172.306L327.29 203.299L299.392 207.502L291.896 230.616L292.729 261.085L269.827 284.199L268.162 317.819L257.752 369.301L254.836 357.218L227.354 372.453L218.61 351.965L201.954 349.864L190.294 338.832L161.98 351.44L154.068 334.63L138.244 336.731L119.09 333.054L116.592 287.876L104.932 278.42L93.6898 249.528L90.3584 220.11L92.8567 188.591L106.598 166.002Z" fill="#ECECEC"/>
<path d="M298.558 94.5578L277.738 88.7794H250.672L243.594 127.128L234.85 138.685L224.023 185.438L204.868 192.793L182.383 183.337L171.14 186.489L157.399 203.299L142.408 201.198L127.002 208.027L110.762 188.59L106.598 166.001L124.087 177.559L141.992 171.255L146.156 142.887L156.15 136.583L184.465 129.229L200.288 102.438L211.114 81.4247L222.774 98.7604L227.354 87.2033L238.597 88.254L239.014 66.7158L239.43 49.9055L256.502 26.7914L267.328 0.525353L276.906 0L289.814 17.3357L291.48 32.0446L307.303 41.5005L327.29 51.4815L326.458 64.6146L310.634 66.1905L315.214 83.0008L298.558 94.5578Z" fill="#ECECEC"/>
<path d="M834.882 541.606L841.545 431.289L845.709 321.497L885.683 344.611L928.572 364.047L943.979 381.383L956.471 398.193L958.969 418.156L997.278 439.169L1001.86 457.029L980.206 460.707L983.953 483.295L1003.52 505.359L1016.02 541.081L1029.76 540.03L1027.26 554.739L1045.16 560.518L1037.67 566.822L1061.4 581.005L1057.66 590.986L1041.83 593.088L1036.84 584.682L1017.27 580.48L993.947 575.752L977.291 554.214L965.632 535.302L955.222 505.884L925.657 491.175L905.254 500.631L889.847 512.188L891.096 536.878L871.942 548.435L859.033 542.657L834.882 541.606Z" fill="#ECECEC"/>
<path d="M459.289 550.536L459.706 540.555L457.624 533.726L460.954 525.846L481.358 518.492L498.014 516.916L505.51 512.713L514.254 516.916L505.093 526.372L479.692 541.081L459.289 550.536Z" fill="#ECECEC"/>
</svg>
