<svg width="1036" height="1115" viewBox="0 0 1036 1115" fill="none" xmlns="http://www.w3.org/2000/svg">
<path d="M631.679 888.843L633.345 895.147L639.175 891.995L644.171 900.925L649.585 904.603L652.083 916.685L650.001 928.242L654.165 942.426L663.742 950.305L664.159 959.236L657.08 963.964L656.663 974.995L647.503 991.28L643.755 989.179L642.922 981.825L630.014 970.268L627.099 954.508L627.515 931.394L629.597 921.413L625.85 916.16L623.768 905.128L631.679 888.843Z" fill="#ECECEC"/>
<path d="M559.225 693.424L557.976 697.626L560.891 708.658L560.058 722.316H548.399L552.979 729.671L547.566 750.684L543.819 756.462L525.497 756.987L515.503 764.867L498.015 762.241L467.617 753.31L462.204 742.278L441.801 748.057L439.719 754.361L426.81 749.633L415.984 748.582L406.407 742.278L409.321 734.399L408.489 728.62L414.318 727.044L425.561 735.975L428.059 727.044L446.381 728.62L460.955 722.842L470.949 723.892L478.027 730.721L479.693 724.943L475.529 703.405L482.608 699.202L489.27 683.968L505.093 695L515.92 681.341L522.999 678.715L539.655 688.696L549.232 687.12L559.225 693.424Z" fill="#ECECEC"/>
<path d="M333.953 621.455L332.287 643.518L326.874 644.569L325.209 662.955L306.887 647.721L296.477 650.347L281.903 635.113L271.909 621.98L262.749 621.455L259.417 609.898L275.657 603.594L290.647 606.22L309.385 599.391L322.294 613.575L333.953 621.455Z" fill="#ECECEC"/>
<path d="M817.393 855.222L807.816 868.881L802.403 892.52L811.147 911.432L791.993 907.229L771.173 917.736L772.422 934.546L753.267 937.698L737.028 925.615L720.372 935.071L704.549 934.021L701.217 911.957L689.559 900.925L692.473 896.723L689.975 892.52L692.473 882.014L699.969 871.507L688.309 857.324L685.395 844.716L689.975 837.361L697.47 851.02L705.381 848.918L722.037 853.646L753.684 855.748L763.261 847.343L787.829 839.463L804.485 851.545L817.393 855.222Z" fill="#ECECEC"/>
<path d="M610.859 816.874L618.771 816.349L614.19 831.058L625.433 844.191L623.351 859.425L618.771 861.001L615.023 864.153L608.361 872.033L606.695 890.419L586.707 877.811L577.963 863.628L569.219 856.273L558.809 843.665L553.395 833.684L542.153 817.925L545.484 804.266L553.812 812.146L557.976 804.792L567.553 804.266L586.291 810.045L600.865 809.519L610.859 816.874Z" fill="#ECECEC"/>
<path d="M854.869 545.808L838.63 544.758L835.299 547.91L841.545 558.416L849.873 579.429L832.801 581.005L827.387 588.359L828.637 604.644L819.892 601.492L801.987 603.068L795.741 595.189L788.662 600.967L780.751 596.239L764.511 595.714L740.776 587.834L720.373 585.207L704.549 586.258L694.555 594.663L684.979 596.239L682.897 581.53L674.985 566.821L686.644 559.992L684.979 547.384L677.899 535.302L675.401 521.118H694.972L714.959 509.036L717.041 491.175L732.031 480.669L727.867 466.485L739.111 461.232L758.265 449.149L780.334 457.029L784.081 464.909L794.075 461.232L814.063 468.586L818.643 483.821L815.728 492.226L831.551 513.239L840.295 519.017V524.796L854.453 530.574L861.532 538.979L854.869 545.808Z" fill="#ECECEC"/>
<path d="M408.489 728.62L409.322 734.399L406.407 742.278L415.984 748.582L426.811 749.633L425.561 762.766L416.817 768.545L400.994 764.342L396.83 777.475L386.836 778.526L383.089 773.272L371.846 784.829L361.436 786.405L352.275 779.051L344.78 764.867L334.786 770.12V754.886L349.776 736.5L348.944 728.095L358.521 731.247L363.934 725.468H381.423L385.587 718.639L408.489 728.62Z" fill="#ECECEC"/>
<path d="M513.838 611.474L524.248 621.98L539.655 624.607L538.822 633.537L550.481 640.366L552.979 631.961L567.137 635.638L570.052 646.145L585.459 647.721L596.285 664.006H590.039L587.124 669.784L582.544 671.36L581.711 678.715L577.963 680.291L577.547 683.442L570.885 686.594L561.724 686.069L559.225 693.424L549.232 687.12L539.655 688.696L522.999 678.715L515.92 681.341L505.093 695L489.27 683.968L476.778 670.309L465.952 662.43L463.037 648.246L458.873 638.79L473.031 631.961L480.109 623.556L494.683 617.252L499.264 610.948L504.677 614.625L513.838 611.474Z" fill="#ECECEC"/>
<path d="M489.687 525.846L495.516 542.131L490.519 551.062L498.431 562.093L504.677 579.429L503.844 590.986L513.837 611.473L504.677 614.625L499.263 610.948L494.683 617.252L480.109 623.556L473.031 631.961L458.873 638.79L463.037 648.246L465.951 662.43L476.778 670.309L489.27 683.968L482.607 699.202L475.529 703.405L479.693 724.943L478.027 730.721L470.949 723.892L460.955 722.841L446.381 728.62L428.059 727.044L425.561 735.974L414.318 727.044L408.489 728.62L385.587 718.639L381.423 725.468H363.934L365.599 701.829L375.593 679.765L345.612 673.461L335.619 665.056L336.451 650.873L332.287 643.518L333.953 621.455L329.373 587.309H341.448L346.445 575.226L350.193 545.808L346.445 534.777L349.776 527.947L366.432 526.371L370.596 533.201L383.505 517.441L378.091 505.359L376.425 487.498L391.833 491.7L403.908 486.972L405.157 499.055L425.561 506.409L425.977 517.966L445.548 511.662L456.375 503.257L479.693 515.865L489.687 525.846Z" fill="#ECECEC"/>
<path d="M457.207 467.01L447.214 492.751L425.561 474.365L421.813 461.232L450.129 450.725L457.207 467.01Z" fill="#ECECEC"/>
<path d="M403.908 486.972L391.833 491.7L376.426 487.498L367.681 469.637L366.016 437.592L368.514 428.662L373.927 419.206L390.583 417.63L397.246 408.7L412.236 399.769V416.054L407.239 426.561L410.154 434.966L420.981 439.694L416.817 451.776L410.987 448.624L398.079 471.213L403.908 486.972Z" fill="#ECECEC"/>
<path d="M738.694 345.661L742.441 350.914L731.615 368.775L741.609 398.193L734.947 408.174L719.123 407.649L700.801 396.092L692.057 392.415L676.234 397.668L675.817 379.282L669.571 383.484L655.831 372.453L651.667 354.592L674.569 345.661L697.887 341.459L719.123 346.186L738.694 345.661Z" fill="#ECECEC"/>
<path d="M698.719 59.3613L700.385 79.3235L730.782 98.7603L718.707 120.824L745.773 153.919L738.694 179.134L759.097 201.198L755.35 221.16L786.163 241.648L782.416 256.882L768.258 274.743L734.946 313.617L701.634 316.243L669.988 327.275L640.423 334.104L627.099 317.294L607.528 307.313L607.944 276.844L595.452 249.527L602.115 231.667L615.856 213.28L652.499 180.71L663.325 174.407L659.578 161.799L632.512 148.14L625.017 136.583L617.521 91.9312L587.541 72.4943L562.557 58.3106L571.717 50.9561L592.954 65.6651L615.023 64.6145L634.594 71.4436L648.751 58.8359L653.332 37.8231L677.899 28.3673L702.051 39.3991L698.719 59.3613Z" fill="#ECECEC"/>
<path d="M84.9459 522.169L70.3719 515.865L57.8799 516.391L62.8767 499.055L59.129 482.245L75.785 480.669L96.1887 500.631L84.9459 522.169Z" fill="#ECECEC"/>
<path d="M151.153 371.402L129.917 405.548L149.488 401.345H170.724L165.311 427.086L147.406 455.453L167.809 457.029L169.059 460.706L186.547 498.004L199.872 503.257L211.948 540.03L217.777 552.638L242.345 558.416L239.847 579.429L229.853 588.885L237.765 605.695L219.443 622.505L192.377 621.98L157.399 631.436L148.239 624.607L134.497 639.841L115.759 636.164L100.769 648.771L90.359 642.467L120.756 608.322L139.078 600.967L107.431 595.714L102.018 582.581L123.255 572.6L112.845 555.264L117.009 534.251L146.573 537.403L149.904 518.492L136.996 499.055L136.579 498.529L112.845 492.751L108.264 484.346L115.759 470.162L109.513 461.232L98.687 476.466L98.2707 445.472L89.1099 429.713L97.0213 397.143L112.845 371.927L127.835 374.028L151.153 371.402Z" fill="#ECECEC"/>
<path d="M772.839 951.356L759.514 950.305L748.271 947.154L722.454 955.559L739.11 974.47L728.7 980.249H716.625L703.716 962.913L699.969 970.268L706.631 990.23L718.707 1005.99L710.795 1013.34L724.12 1028.58L735.779 1038.56L737.445 1057.47L716.625 1048.54L724.12 1065.88L710.379 1069.03L720.789 1098.97L706.215 1099.5L687.06 1084.79L677.067 1058L671.653 1035.41L662.076 1020.17L649.584 1000.74L647.502 991.281L656.663 974.996L657.079 963.964L664.158 959.236L663.742 950.305L677.899 947.679L685.395 940.324L697.054 940.85L700.385 935.071L704.549 934.021L720.372 935.071L737.028 925.615L753.268 937.698L772.422 934.546L771.173 917.736L782.416 926.666L777.835 947.679L772.839 951.356Z" fill="#ECECEC"/>
<path d="M604.613 781.678L610.859 794.811L617.938 804.266L610.859 816.874L600.865 809.519L586.291 810.045L567.553 804.266L557.976 804.792L553.812 812.146L545.484 804.266L542.153 817.925L553.396 833.684L558.809 843.665L569.219 856.273L577.963 863.628L586.708 877.811L606.695 890.419L604.613 895.672L583.793 883.59L570.468 871.507L550.481 861.526L530.91 837.362L535.074 834.735L524.664 820.551L523.415 809.519L509.674 804.266L503.844 818.45L497.182 807.418V795.861L497.598 795.336L512.589 796.386L515.92 791.133L523.415 796.386L531.743 796.912L531.327 787.981L538.405 784.304L539.655 771.171L555.894 762.241L562.557 766.443L579.213 780.627L597.118 786.931L604.613 781.678Z" fill="#ECECEC"/>
<path d="M665.824 699.202L678.316 708.133L680.398 717.063L668.322 723.892L660.411 745.956L649.584 768.545L633.345 774.848L620.02 773.272L604.613 781.678L597.118 786.931L579.213 780.627L562.557 766.443L555.894 762.241L550.897 751.209L547.566 750.684L552.979 729.671L548.399 722.316H560.058L560.891 708.658L572.134 717.588L580.045 720.74L597.118 717.063L598.367 710.234L606.279 709.183L615.856 704.455L618.354 706.557L627.931 702.354L632.095 694.474L638.758 692.373L661.66 702.354L665.824 699.202Z" fill="#ECECEC"/>
<path d="M84.9462 522.169L87.8611 545.283L71.6214 574.176L34.9782 593.087L6.66309 588.359L24.5682 554.739L15.8237 522.169L43.7225 496.954L59.1294 482.245L62.8771 499.055L57.8802 516.39L70.3722 515.865L84.9462 522.169Z" fill="#ECECEC"/>
<path d="M498.015 762.241L496.349 778.526L502.179 792.709L485.106 787.456L468.867 799.538L470.532 815.823L468.45 825.279L476.362 842.089L497.182 858.9L509.257 886.742L534.658 913.533L551.314 913.008L557.143 920.362L551.314 927.191L571.301 939.274L587.957 949.255L607.528 967.116L610.026 972.894L606.695 984.977L593.787 969.217L574.632 963.964L566.721 985.502L582.96 998.11L581.295 1015.45L572.55 1017.55L562.14 1046.44L552.979 1049.07L552.563 1038.56L556.311 1020.7L560.891 1013.34L551.314 993.907L543.819 977.097L534.658 972.894L527.163 958.711L513.005 952.407L503.011 938.748L487.188 936.647L469.283 921.938L448.879 899.875L433.473 880.963L425.561 847.868L414.735 844.191L397.246 833.159L387.669 837.361L375.593 853.121L366.849 855.222L368.931 841.039L357.271 836.836L351.025 811.095L358.104 801.114L351.858 788.507L352.275 779.051L361.435 786.405L371.845 784.829L383.088 773.272L386.836 778.526L396.829 777.475L400.993 764.342L416.817 768.544L425.561 762.766L426.81 749.633L439.719 754.361L441.801 748.057L462.204 742.278L467.617 753.31L498.015 762.241Z" fill="#ECECEC"/>
<path d="M727.867 466.485L732.031 480.669L717.041 491.175L714.959 509.036L694.972 521.118H675.401L669.571 511.137L659.161 507.46L656.663 499.58L657.496 490.65L648.335 485.922L627.099 480.143L620.02 453.352L641.256 443.896L674.152 445.997L692.89 442.845L696.637 449.149L707.047 451.251L727.867 466.485Z" fill="#ECECEC"/>
<path d="M335.619 665.056L329.789 665.582L325.209 662.955L326.874 644.569L332.288 643.518L336.452 650.873L335.619 665.056Z" fill="#ECECEC"/>
<path d="M734.946 408.174L745.356 415.004L749.52 430.238L758.265 449.149L739.11 461.232L727.867 466.485L707.047 451.251L696.637 449.149L692.89 442.846L674.152 445.998L641.256 443.896L620.02 453.352L617.938 429.713L625.017 409.75L642.089 399.244L660.411 422.883L675.817 421.833L676.234 397.668L692.057 392.415L700.801 396.092L719.123 407.649L734.946 408.174Z" fill="#ECECEC"/>
<path d="M804.069 795.861L798.655 780.627L799.488 766.443L796.99 752.26L782.832 732.297L774.504 718.639L767.009 709.183L760.347 705.506L764.927 700.778L778.252 697.626L794.908 707.607L803.236 709.183L814.062 718.114L813.646 729.145L821.974 734.399L826.554 748.057L834.882 756.462L834.049 761.715L838.213 764.867L832.8 767.494L820.308 766.443L817.81 761.715L813.646 764.342L816.144 770.12L811.564 781.152L809.065 792.184L804.069 795.861Z" fill="#ECECEC"/>
<path d="M704.549 934.021L700.385 935.071L697.054 940.85L685.395 940.324L677.9 947.679L663.742 950.305L654.165 942.426L650.001 928.242L652.083 916.685L654.998 917.21L655.414 910.381L667.49 905.128L672.487 903.552L679.565 901.976L689.559 900.925L701.218 911.957L704.549 934.021Z" fill="#ECECEC"/>
<path d="M642.506 884.64L639.175 891.995L633.345 895.147L631.679 888.843L623.768 905.128L625.85 916.16L621.269 913.533L614.191 902.501L604.613 895.672L606.695 890.419L608.361 872.033L615.023 864.153L618.771 861.001L624.601 866.78L628.348 871.507L635.427 875.185L644.171 882.014L642.506 884.64Z" fill="#ECECEC"/>
<path d="M738.694 45.7029L712.045 56.7347L698.719 59.3613L702.051 39.3991L677.899 28.3673L653.332 37.8231L648.751 58.8359L634.594 71.4437L615.023 64.6145L592.954 65.6651L571.717 50.9561L562.557 58.3106L551.731 59.3613L552.147 78.2728L518.835 73.5449L516.337 89.8299H499.681L490.103 110.317L475.945 142.362L452.211 183.862L459.706 194.369L454.293 205.926L436.387 205.4L426.394 233.768L430.558 274.218L443.467 289.452L440.135 325.699L425.977 346.712L418.483 364.573L404.741 345.661L368.931 381.383L343.53 388.737L316.464 372.978L308.969 339.883L300.641 268.964L317.297 249.527L364.35 223.787L398.079 192.793L428.059 151.818L465.119 95.6084L491.769 74.0703L534.658 38.3484L570.052 25.7407L597.951 27.3167L619.603 4.20256L650.417 5.25321L679.565 0L736.612 20.4875L716.209 27.842L738.694 45.7029Z" fill="#ECECEC"/>
<path d="M597.951 504.308L622.519 507.985L659.162 507.46L669.572 511.137L675.401 521.118L677.9 535.302L684.979 547.384L686.644 559.992L674.985 566.821L682.897 581.53L684.979 596.239L698.303 624.607L697.054 633.537L687.477 637.214L671.654 664.531L678.316 679.24L673.736 677.139L652.916 664.531L638.342 669.259L628.348 666.107L616.689 672.936L605.446 661.379L597.535 666.107L596.285 664.006L585.459 647.721L570.052 646.145L567.137 635.638L552.98 631.961L550.481 640.366L538.822 633.537L539.655 624.607L524.248 621.98L513.838 611.474L503.845 590.986L504.677 579.429L498.431 562.093L490.52 551.062L495.517 542.131L489.687 525.846L502.595 516.39L532.16 501.681L556.311 491.175L576.298 496.428L578.797 504.308H597.951Z" fill="#ECECEC"/>
<path d="M760.347 705.506L767.009 709.183L774.504 718.639L782.832 732.297L796.99 752.26L799.488 766.443L798.655 780.627L804.069 795.861L814.062 802.165L823.639 796.386L833.633 802.165L835.299 811.095L825.721 817.925L819.059 814.773L817.393 855.222L804.485 851.545L787.829 839.463L763.261 847.343L753.684 855.748L722.038 853.646L705.382 848.919L697.47 851.02L689.975 837.361L685.811 831.583L689.975 825.804L684.562 822.127L678.316 829.482L665.407 819.501L662.493 805.842L649.168 798.488L645.837 787.456L633.345 774.848L649.584 768.544L660.411 745.956L668.322 723.892L680.398 717.063L688.726 709.708L702.051 713.386H715.375L725.785 721.791L732.448 716.538L747.438 713.386L751.602 705.506H760.347Z" fill="#ECECEC"/>
<path d="M689.975 837.361L685.395 844.716L688.31 857.324L699.969 871.507L692.474 882.014L689.975 892.52L692.474 896.723L689.559 900.925L679.565 901.976L672.487 903.552L671.237 900.925L673.736 897.248L675.401 888.843L672.487 889.368L667.906 883.064L664.159 881.488L660.827 876.235L656.663 874.134L653.332 869.406L649.585 871.507L647.503 882.539L642.506 884.64L644.171 882.014L635.427 875.185L628.348 871.507L624.601 866.779L618.771 861.001L623.351 859.425L625.433 844.191L614.191 831.058L618.771 816.349L610.859 816.874L617.938 804.266L610.859 794.811L604.613 781.678L620.02 773.272L633.345 774.848L645.837 787.456L649.168 798.488L662.493 805.842L665.408 819.501L678.316 829.482L684.562 822.127L689.975 825.804L685.811 831.583L689.975 837.361Z" fill="#ECECEC"/>
<path d="M673.735 677.139L668.739 686.069L665.824 699.202L661.66 702.354L638.758 692.373L632.095 694.474L627.931 702.354L618.355 706.557L615.856 704.455L606.279 709.183L598.367 710.234L597.118 717.063L580.045 720.74L572.134 717.588L560.891 708.658L557.977 697.626L559.225 693.424L561.724 686.069L570.885 686.594L577.547 683.442L577.963 680.29L581.711 678.715L582.544 671.36L587.125 669.784L590.039 664.006H596.285L597.535 666.107L605.446 661.379L616.689 672.936L628.348 666.107L638.341 669.259L652.915 664.531L673.735 677.139Z" fill="#ECECEC"/>
<path d="M555.895 762.241L539.655 771.171L538.405 784.304L531.327 787.981L531.743 796.912L523.415 796.386L515.92 791.133L512.589 796.386L497.599 795.336L502.179 792.709L496.349 778.526L498.015 762.241L515.503 764.867L525.497 756.987L543.819 756.462L547.567 750.684L550.897 751.209L555.895 762.241Z" fill="#ECECEC"/>
<path d="M632.512 148.141L603.364 156.546L588.79 177.033L594.203 195.419L568.386 219.059L535.907 245.325L527.163 287.876L542.569 309.414L562.557 326.75L548.815 361.421L529.661 368.775L527.163 421.307L518.418 451.251L494.683 448.099L485.523 473.314L462.621 474.89L454.709 444.947L435.971 408.7L418.482 364.573L425.977 346.712L440.135 325.699L443.466 289.452L430.558 274.218L426.394 233.768L436.387 205.401L454.293 205.926L459.706 194.369L452.211 183.862L475.945 142.362L490.103 110.317L499.68 89.8299H516.336L518.835 73.545L552.147 78.2728L551.73 59.3613L562.557 58.3107L587.541 72.4943L617.521 91.9312L625.017 136.583L632.512 148.141Z" fill="#ECECEC"/>
<path d="M772.839 951.356L777.835 947.679L782.415 926.666L771.173 917.736L791.993 907.229L811.147 911.432L814.895 924.565L834.882 935.071L831.967 943.476L806.151 945.052L797.823 955.559L781.583 973.42L773.255 958.185L772.839 951.356Z" fill="#ECECEC"/>
<path d="M919.828 608.322L929.405 622.505L929.821 628.809L957.721 640.366L972.711 635.113L987.701 650.347L999.777 649.822L1031.84 660.328L1033.51 670.309L1028.09 687.12L1035.59 705.506L1034.34 716.538L1014.35 718.639L1005.19 728.095L1006.86 742.278L990.616 744.905L978.124 755.937L958.969 757.513L942.313 770.12L946.477 790.608L958.137 798.488L979.373 796.386L976.875 808.469L954.389 814.247L928.156 833.159L915.247 826.33L918.163 811.095L893.595 801.114L896.509 794.811L915.664 783.779L908.585 776.424L874.857 768.019L871.525 755.412L852.787 759.614L847.375 778L833.633 802.165L823.639 796.386L814.063 802.165L804.069 795.861L809.065 792.184L811.564 781.152L816.145 770.12L813.646 764.342L817.81 761.715L820.309 766.443L832.801 767.494L838.213 764.867L834.049 761.715L834.883 756.462L826.555 748.057L821.974 734.399L813.646 729.145L814.063 718.114L803.236 709.183L794.908 707.607L778.252 697.626L764.927 700.778L760.347 705.506H751.603L747.439 713.386L732.448 716.538L725.785 721.791L715.375 713.386H702.051L688.726 709.709L680.398 717.063L678.316 708.133L665.824 699.202L668.739 686.069L673.735 677.139L678.316 679.24L671.653 664.531L687.477 637.214L697.054 633.537L698.303 624.607L684.979 596.239L694.555 594.663L704.549 586.258L720.373 585.207L740.776 587.834L764.511 595.714L780.751 596.239L788.662 600.967L795.741 595.189L801.987 603.068L819.892 601.492L828.637 604.644L827.387 588.359L832.801 581.005L849.873 579.429L857.368 580.48L861.532 573.125L867.778 574.701L888.181 571.549L904.005 589.935L900.257 596.765L903.589 606.746L919.828 608.322Z" fill="#ECECEC"/>
<path d="M672.486 903.552L667.489 905.128L655.414 910.381L654.997 917.21L652.083 916.685L649.584 904.603L644.171 900.925L639.174 891.995L642.505 884.64L647.502 882.539L649.584 871.507L653.332 869.406L656.663 874.134L660.827 876.235L664.158 881.489L667.906 883.064L672.486 889.368L675.401 888.843L673.735 897.248L671.237 900.925L672.486 903.552Z" fill="#ECECEC"/>
<path d="M333.953 621.455L322.294 613.575L309.386 599.391L290.648 606.22L275.657 603.594L286.067 594.663L302.723 547.384L329.789 533.726L346.445 534.777L350.193 545.808L346.445 575.226L341.448 587.309H329.373L333.953 621.455Z" fill="#ECECEC"/>
<path d="M44.1386 1076.38L34.9777 1084.79L23.3186 1080.06L12.0757 1083.74L15.8231 1057.47L14.574 1036.98L4.58055 1033.83L0 1021.22L2.082 999.16L11.2429 987.078L13.3249 973.42L18.3217 953.457V939.274L14.574 927.191L13.7411 915.634L21.6529 907.229L30.8137 902.501L35.8106 918.786H48.3026L52.05 914.584L64.9586 915.634L70.3717 932.445L60.378 941.375L59.1289 967.641L55.7977 972.369L54.5486 988.654L44.9711 991.281L53.2991 1011.24L46.6369 1033.31L54.132 1043.29L50.8009 1052.22L42.4729 1064.83L44.1386 1076.38Z" fill="#ECECEC"/>
<path d="M659.161 507.46L622.518 507.985L597.951 504.308L600.865 490.65L627.099 480.143L648.335 485.922L657.496 490.65L656.663 499.58L659.161 507.46Z" fill="#ECECEC"/>
<path d="M167.809 864.678L176.137 877.286L215.695 892.52L223.607 885.166L247.758 900.4L272.326 896.197L273.991 915.634L253.588 937.698L226.105 945.052L224.023 956.084L210.699 974.47L202.371 1001.79L210.699 1021.22L198.207 1035.93L193.21 1058L176.554 1064.83L161.147 1090.57L132.832 1091.09L112.012 1090.57L97.854 1102.12L89.1097 1114.73L78.2831 1112.1L70.3717 1100.55L64.542 1081.64L44.1385 1076.38L42.4728 1064.83L50.8008 1052.22L54.132 1043.29L46.6368 1033.31L53.2991 1011.24L44.9711 991.281L54.5485 988.654L55.7977 972.369L59.1288 967.641L60.378 941.375L70.3717 932.445L64.9585 915.634L52.05 914.584L48.3025 918.786H35.8105L30.8137 902.501L21.6528 907.229L13.7411 915.634L15.8231 891.995L7.49512 877.811L38.3088 853.646L64.1257 859.425H92.8571L115.343 865.204L133.248 863.102L167.809 864.678Z" fill="#ECECEC"/>
<path d="M413.902 906.704L407.656 932.445L397.662 925.615L392.249 903.552L395.997 890.944L409.321 878.337L413.902 906.704Z" fill="#ECECEC"/>
<path d="M325.208 662.955L329.789 665.582L335.618 665.056L345.612 673.461L375.593 679.765L365.599 701.829L363.934 725.468L358.52 731.247L348.943 728.095L349.776 736.5L334.786 754.886V770.12L344.779 764.867L352.274 779.051L351.858 788.507L358.104 801.114L351.025 811.095L357.271 836.836L368.93 841.039L366.848 855.222L348.11 874.134L305.638 865.203L274.824 876.235L272.326 896.197L247.758 900.4L223.607 885.166L215.695 892.52L176.137 877.286L167.809 864.678L179.052 844.716L183.216 778.526L161.98 743.854L146.573 727.044L114.926 714.436L113.261 690.272L140.327 683.442L174.888 691.848L168.642 654.55L188.213 668.733L235.682 643.518L241.928 616.727L259.417 609.897L262.748 621.455L271.909 621.98L281.903 635.113L296.477 650.347L306.887 647.721L325.208 662.955Z" fill="#ECECEC"/>
</svg>
