<svg width="1103" height="2280" viewBox="0 0 1103 2280" fill="none" xmlns="http://www.w3.org/2000/svg">
<path d="M598.783 2257.3L586.291 2256.25H565.471L540.487 2184.81L553.396 2199.52L571.301 2223.68L603.78 2243.12L634.177 2251L630.846 2266.76L612.524 2268.34L598.783 2257.3Z" fill="#ECECEC"/>
<path d="M471.781 1169.89L518.835 1224.52L537.989 1229.78L568.386 1254.99L592.954 1268.12L597.534 1282.83L580.045 1334.31L604.197 1343.25L630.43 1348.5L647.919 1343.25L665.824 1316.98L667.073 1287.56L677.899 1280.73L691.224 1300.69L692.89 1327.49L675.401 1345.87L661.66 1359.53L639.591 1392.63L614.607 1438.33L612.525 1465.65L610.859 1500.32L615.856 1533.94L612.108 1541.29L613.774 1562.83L615.023 1580.69L647.502 1609.58L648.335 1632.7L664.575 1647.41L665.824 1663.69L652.083 1706.77L622.935 1725.15L580.462 1731.98L555.478 1728.31L564.222 1748.79L564.639 1773.48L572.134 1790.29L561.724 1802.38L540.487 1807.1L517.169 1794.5L510.923 1803.43L521.333 1836.52L537.989 1846.5L547.566 1836L557.976 1853.33L540.487 1863.84L528.412 1884.85L533.409 1917.95L532.992 1935.81H513.005L500.513 1952.62L500.929 1977.83L527.995 2002L549.648 2008.3L550.481 2038.24L531.327 2056.63L528.828 2094.98L514.254 2107.59L510.507 2122.82L527.995 2156.97L547.15 2175.35L538.405 2173.78L518.002 2168.52L467.617 2164.32L453.043 2145.41L445.132 2121.25L432.223 2123.35L421.397 2111.26L408.489 2077.12L419.731 2062.41L420.148 2041.92L412.653 2025.11L415.567 1996.74L410.987 1953.14L403.492 1933.71L410.987 1927.4L405.157 1914.79L393.498 1908.49L396.829 1894.31L383.921 1881.7L368.514 1843.35L375.593 1836.52L361.852 1795.55L358.521 1761.4L357.688 1731.46L368.098 1719.38L354.357 1686.28L347.694 1655.81L360.186 1633.75L354.357 1605.38L361.019 1572.81L355.189 1541.82L348.527 1535.51L328.123 1477.2L336.868 1442.53L329.789 1409.96L333.537 1378.97L344.363 1347.45L358.104 1326.44L349.776 1313.3L353.107 1302.27L346.445 1246.06L369.763 1229.78L374.76 1194.58L371.013 1186.17L387.669 1155.71L418.899 1164.11L434.305 1188.28L440.968 1160.96L467.617 1162.53L471.781 1169.89Z" fill="#ECECEC"/>
<path d="M571.301 1100.02L570.052 1089.52L547.566 1072.18L525.913 1071.65L485.939 1081.64L477.194 1111.05L478.027 1129.44L471.781 1169.89L467.617 1162.54L440.968 1160.96L434.305 1188.28L418.898 1164.11L387.668 1155.71L371.012 1186.17L354.773 1190.9L341.864 1144.15L326.458 1106.33L331.038 1073.76L317.713 1059.57L312.716 1035.41L299.392 1012.29L311.467 976.046L299.392 947.679L303.972 936.122L298.975 923.514L306.887 906.704L305.638 878.337V854.172L310.218 843.14L287.316 788.507L304.805 791.659L316.88 790.608L321.461 780.627L341.448 766.969L353.524 754.361L383.921 748.582L382.255 773.798L386.003 786.931L384.754 809.519L411.82 839.463L438.469 845.241L448.046 857.849L464.286 864.678L474.696 874.134H489.27L503.428 884.115L505.51 903.552L510.506 913.533L511.756 927.717L504.677 928.242L516.336 967.641L560.891 969.217L558.809 988.654L562.14 1001.79L575.465 1011.24L582.544 1032.26L580.045 1059.05L574.632 1073.76L577.963 1092.67L571.301 1100.02Z" fill="#ECECEC"/>
<path d="M585.042 355.117L597.951 358.269L600.449 350.914L596.285 344.61L598.783 334.629L608.361 337.781L619.603 334.104L632.928 341.459L643.338 348.288L650.417 339.357L655.83 340.408L659.161 349.864L670.404 347.762L679.565 334.629L687.06 309.939L701.218 278.945L709.546 277.369L714.959 296.281L727.451 355.117L740.359 360.895L740.776 384.01L722.871 411.851L729.949 421.833L772.006 427.086L772.839 461.232L790.744 439.168L820.308 451.251L859.866 471.738L871.525 491.175L867.778 510.086L895.26 499.58L941.064 517.441L976.458 516.39L1011.44 544.232L1042.25 582.055L1060.57 591.511L1080.56 593.087L1089.3 603.594L1097.63 646.67L1102.21 667.157L1093.47 722.841L1082.22 744.905L1050.16 791.659L1036 830.007L1019.35 858.9L1013.52 859.95L1008.1 884.64L1011.85 947.679L1007.27 999.686L1006.02 1021.75L999.36 1035.41L997.278 1080.59L975.625 1124.19L973.543 1159.38L955.638 1173.57L951.058 1194.05H926.074L890.68 1206.66L875.273 1221.9L850.289 1231.88L824.889 1258.67L807.816 1292.29L806.567 1317.5L811.98 1335.89L810.731 1370.04L807.4 1386.32L793.242 1405.23L774.504 1464.59L757.848 1490.86L744.523 1507.15L738.277 1539.19L726.202 1558.1L717.457 1539.19L724.953 1522.91L709.129 1500.32L689.142 1481.4L662.909 1459.87L654.997 1460.92L628.764 1434.65L614.607 1438.33L639.591 1392.63L661.66 1359.53L675.401 1345.87L692.89 1327.49L691.224 1300.69L677.899 1280.73L667.073 1287.56L669.988 1268.12L671.237 1248.16L669.988 1229.25L661.243 1223.47L652.915 1228.73L644.171 1227.15L640.84 1214.54L636.259 1183.55L631.263 1173.57L615.023 1164.11L605.862 1170.94L581.295 1164.11L579.629 1118.41L571.301 1100.02L577.963 1092.67L574.632 1073.76L580.045 1059.05L582.544 1032.26L575.465 1011.24L562.14 1001.79L558.809 988.654L560.891 969.217L516.336 967.641L504.677 928.242L511.756 927.717L510.507 913.533L505.51 903.552L503.428 884.115L489.27 874.134H474.696L464.286 864.678L448.047 857.849L438.469 845.241L411.82 839.463L384.754 809.519L386.003 786.931L382.255 773.798L383.921 748.582L353.524 754.361L341.448 766.968L321.461 780.627L316.881 790.608L304.805 791.659L287.316 788.506L273.991 794.285L263.165 790.608L262.749 739.652L244.427 759.089L223.607 758.563L214.03 740.177L198.207 738.601L202.371 723.892L188.629 703.405L177.803 672.936L184.049 667.157L183.216 652.449L197.374 642.993L194.459 624.607L200.289 613.049L201.538 597.29L227.771 574.176L246.925 567.872L250.257 562.618L271.493 564.195L280.654 471.738L281.07 457.029L277.323 438.118L266.496 425.51L266.913 400.82L280.237 395.566L284.818 399.244L285.651 386.111L271.909 382.433V361.421L317.713 362.471L325.625 350.389L332.287 361.421L336.451 381.383L341.032 377.18L353.94 395.041L372.262 392.94L376.842 382.433L394.331 374.554L404.325 368.775L407.239 354.592L424.312 345.136L423.063 337.781L403.075 335.155L400.161 313.617L401.41 291.028L391 282.623L395.58 279.471L412.653 283.673L431.391 292.078L438.469 284.199L455.542 278.945L482.191 266.338L490.936 253.205L488.021 243.749L500.513 242.698L505.51 250.053L502.179 265.287L510.507 270.015L515.503 285.774L508.841 297.857L504.677 326.224L510.507 343.56L511.756 359.319L526.33 375.079L537.989 376.655L540.487 369.826L547.983 368.25L558.809 362.471L566.304 353.541L579.629 356.693L585.042 355.117Z" fill="#ECECEC"/>
<path d="M246.093 22.0635L230.686 27.8419L224.023 44.6523L214.446 54.108L206.951 66.7158L203.203 90.8805L195.708 110.843L207.784 112.944L210.282 128.178L215.279 136.058L216.528 149.191L213.613 161.799L214.03 169.153L219.859 171.78L224.856 183.337L255.253 180.185L268.995 184.388L284.818 213.806L294.395 210.128L311.467 211.704L324.792 208.027L333.12 213.806L328.123 231.667L322.71 243.224L320.212 267.388L324.792 289.977L331.038 299.958L331.871 307.313L319.795 324.123L328.123 331.478L334.369 343.56L341.032 377.18L336.451 381.383L332.287 361.421L325.625 350.389L317.713 362.471L271.909 361.421V382.434L285.651 386.111L284.818 399.244L280.237 395.567L266.913 400.82L266.496 425.51L277.323 438.118L281.07 457.029L280.654 471.738L271.493 564.195L259.417 546.334L252.339 545.809L266.913 511.137L248.591 495.378L234.433 498.53L225.689 492.751L212.781 501.681L195.292 496.953L180.718 461.757L169.891 453.352L162.396 437.067L146.573 421.307L140.327 424.459L130.333 416.579L118.674 405.548L112.012 410.801L92.0245 406.073L86.1948 391.364L81.6145 391.889L58.296 372.978L55.3811 362.471L64.1257 359.845L63.2928 343.034L69.1225 330.427L80.7817 328.326L91.1917 307.313L100.353 289.452L92.0245 281.572L97.0211 262.135L92.4408 231.141L97.854 222.211L94.9391 193.843L85.7785 175.457L89.526 159.172L97.0211 161.799L101.602 151.818L97.0211 131.856L99.936 127.128L112.012 128.178L130.75 104.539L140.743 100.862L141.16 89.8299L146.989 60.9373L161.147 45.703L175.721 44.6523L178.219 37.8232L196.541 40.4498L215.695 23.6394L225.273 16.285L237.348 0L245.676 2.10125L251.089 11.0318L246.093 22.0635Z" fill="#ECECEC"/>
<path d="M140.327 424.459L143.658 450.2L136.579 471.738L111.179 507.46L83.2801 520.593L69.1226 550.011L65.3749 572.6L52.4666 586.783L42.0566 569.448L32.4792 565.771L22.9021 568.397L21.6529 556.315L28.3152 548.435L25.4006 534.251L37.4761 509.036L32.0629 494.327L23.3186 510.086L8.74463 494.852L13.3249 485.397L9.16093 454.928L17.4889 449.675L21.6529 428.662L30.3972 407.124L29.1481 393.465L42.0566 386.111L58.2961 372.978L81.6146 391.889L86.1949 391.364L92.0246 406.073L112.012 410.801L118.674 405.548L130.333 416.579L140.327 424.459Z" fill="#ECECEC"/>
<path d="M572.967 218.008L568.803 248.477L554.229 256.882L555.478 264.762L550.897 282.622L560.891 306.787H568.386L571.301 325.699L585.042 355.117L579.629 356.693L566.304 353.541L558.809 362.471L547.983 368.25L540.487 369.826L537.989 376.655L526.33 375.079L511.756 359.319L510.507 343.56L504.677 326.224L508.841 297.857L515.503 285.774L510.507 270.015L502.179 265.287L505.51 250.053L500.513 242.698L488.021 243.749L472.614 218.533L479.277 209.078V193.318L493.851 188.065L499.68 181.761L492.185 169.153L494.267 157.071L513.838 137.109L528.828 149.716L542.569 171.254L542.986 189.115L551.73 189.641L564.222 205.926L572.967 218.008Z" fill="#ECECEC"/>
<path d="M271.493 564.195L250.257 562.618L246.925 567.872L227.771 574.176L201.538 597.29L200.289 613.049L194.459 624.607L197.374 642.993L183.216 652.449L184.049 667.157L177.803 672.936L188.629 703.405L202.371 723.892L198.207 738.601L214.03 740.177L223.607 758.563L244.427 759.089L262.749 739.652L263.165 790.608L273.991 794.285L287.316 788.506L310.218 843.14L305.638 854.172V878.337L306.887 906.704L298.975 923.514L303.972 936.122L299.392 947.679L311.467 976.046L299.392 1012.29L294.811 1029.63L283.152 1038.03L258.585 1018.6L255.253 1004.94L206.535 971.318L161.98 934.02L142.409 913.533L130.75 885.691L134.081 875.71L111.595 831.583L84.9457 769.595L59.9617 702.354L49.968 686.594L41.64 661.904L22.4857 639.841L5.41315 626.183L12.492 611.474L0 578.904L7.07885 555.264L25.4006 534.251L28.3151 548.435L21.6529 556.315L22.902 568.397L32.4791 565.771L42.0566 569.448L52.4666 586.783L65.3749 572.6L69.1226 550.011L83.28 520.593L111.179 507.46L136.579 471.738L143.658 450.2L140.327 424.459L146.573 421.307L162.396 437.067L169.891 453.352L180.718 461.757L195.292 496.953L212.781 501.681L225.689 492.751L234.433 498.53L248.591 495.377L266.913 511.137L252.339 545.808L259.417 546.334L271.493 564.195Z" fill="#ECECEC"/>
<path d="M571.301 1100.02L579.629 1118.41L581.295 1164.11L605.862 1170.94L615.023 1164.11L631.263 1173.57L636.259 1183.55L640.84 1214.54L644.171 1227.15L652.915 1228.73L661.243 1223.47L669.988 1229.25L671.237 1248.16L669.988 1268.12L667.073 1287.56L665.824 1316.98L647.919 1343.25L630.43 1348.5L604.197 1343.25L580.045 1334.31L597.534 1282.83L592.954 1268.12L568.386 1254.99L537.989 1229.78L518.835 1224.52L471.781 1169.89L478.027 1129.44L477.195 1111.05L485.939 1081.64L525.913 1071.65L547.566 1072.18L570.052 1089.52L571.301 1100.02Z" fill="#ECECEC"/>
<path d="M648.335 225.362L635.427 254.255L636.676 277.369L645.837 297.331L641.256 311.515L639.174 327.275L632.928 341.458L619.603 334.104L608.361 337.781L598.783 334.629L596.285 344.61L600.449 350.914L597.951 358.269L585.042 355.117L571.301 325.699L568.386 306.787H560.891L550.897 282.622L555.478 264.762L554.229 256.882L568.803 248.477L572.967 218.008L601.282 224.837L603.78 218.533L622.935 215.907L648.335 225.362Z" fill="#ECECEC"/>
<path d="M726.202 1558.1L719.539 1579.64L697.054 1598.03L679.565 1591.2L667.906 1594.87L645.004 1580.69L630.013 1581.74L613.774 1562.83L612.108 1541.29L615.856 1533.94L610.859 1500.32L612.525 1465.65L614.607 1438.33L628.764 1434.65L654.997 1460.92L662.909 1459.87L689.142 1481.4L709.129 1500.32L724.953 1522.91L717.457 1539.19L726.202 1558.1Z" fill="#ECECEC"/>
<path d="M513.838 137.109L494.267 157.071L492.185 169.153L499.68 181.761L493.851 188.065L479.277 193.318V209.078L472.614 218.533L488.021 243.749L490.936 253.205L482.191 266.338L455.542 278.945L438.469 284.199L431.391 292.078L412.653 283.673L395.58 279.471L391 282.622L401.41 291.028L400.161 313.617L403.075 335.155L423.063 337.781L424.312 345.136L407.239 354.591L404.325 368.775L394.331 374.554L376.842 382.433L372.262 392.94L353.94 395.041L341.032 377.18L334.369 343.56L328.123 331.477L319.795 324.123L331.871 307.313L331.038 299.958L324.792 289.977L320.212 267.388L322.71 243.223L328.123 231.666L333.12 213.806L324.792 208.027L311.467 211.704L294.395 210.128L284.818 213.806L268.995 184.388L255.253 180.185L224.856 183.337L219.859 171.78L214.03 169.153L213.613 161.799L216.528 149.191L215.279 136.058L210.282 128.178L207.784 112.944L195.708 110.843L203.203 90.8803L206.951 66.7157L214.446 54.1079L224.023 44.6522L230.686 27.8418L246.093 22.0634L245.26 29.9433L231.102 34.1458L238.181 49.38L236.932 67.2409L225.689 86.6778L233.601 113.469L244.011 111.368L250.257 86.6778L243.178 75.1207V49.38L273.159 35.7217L270.66 19.962L279.405 8.93042L286.483 33.0951L303.139 33.6204L317.297 52.0066L318.13 63.5638H338.95L364.35 60.4118L377.259 75.1207L394.747 79.3234L408.489 68.817L408.905 60.4118L438.469 58.3105L466.368 57.7852L445.965 67.7663L453.46 84.0512L472.198 86.1525L489.687 102.963L492.601 129.754L504.677 129.229L513.838 137.109Z" fill="#ECECEC"/>
<path d="M540.487 2184.81L565.471 2256.25H586.291L598.783 2257.3L596.701 2269.91L583.377 2279.89L573.383 2278.84L560.475 2276.22L542.986 2266.76L520.5 2262.03L489.27 2244.17L462.621 2227.36L421.813 2191.11L440.968 2197.94L476.778 2219.48L507.175 2231.04L512.172 2216.33L510.923 2194.27L525.081 2180.61L540.487 2184.81Z" fill="#ECECEC"/>
<path d="M371.013 1186.17L374.76 1194.58L369.763 1229.78L346.445 1246.06L353.107 1302.27L349.776 1313.3L358.104 1326.44L344.363 1347.45L333.537 1378.97L329.789 1409.96L336.868 1442.53L328.123 1477.2L348.527 1535.51L355.189 1541.82L361.019 1572.81L354.357 1605.38L360.186 1633.75L347.694 1655.81L354.357 1686.28L368.098 1719.38L357.688 1731.46L358.521 1761.4L361.852 1795.55L375.593 1836.52L368.514 1843.35L383.921 1881.7L396.829 1894.31L393.498 1908.49L405.157 1914.79L410.987 1927.4L403.492 1933.71L410.987 1953.14L415.567 1996.74L412.653 2025.11L420.148 2041.92L419.731 2062.41L408.489 2077.12L421.397 2111.26L432.223 2123.35L445.132 2121.25L453.043 2145.41L467.617 2164.32L518.002 2168.52L538.405 2173.78H520.5L513.421 2181.66L499.264 2193.21L506.343 2223.16L498.431 2223.68L472.198 2213.7L440.968 2191.11L409.321 2172.73L395.997 2152.24L394.747 2133.33L377.259 2111.26L356.439 2055.58L355.606 2024.06L369.763 1998.85L335.202 1988.86L346.445 1959.97L338.117 1904.81L365.183 1916.37L357.688 1847.55L341.032 1838.62L345.196 1880.12L330.622 1875.4L324.376 1828.12L316.048 1766.13L320.628 1743.01L306.887 1710.44L296.893 1672.62L306.054 1671.05L308.553 1616.94L313.549 1562.83L313.966 1512.92L300.225 1461.97L302.723 1434.13L293.979 1392.63L301.474 1351.65L297.726 1286.51V1216.12L298.143 1141L291.897 1085.84L283.152 1038.03L294.811 1029.63L299.392 1012.29L312.717 1035.41L317.713 1059.57L331.038 1073.76L326.458 1106.33L341.865 1144.15L354.773 1190.9L371.013 1186.17Z" fill="#ECECEC"/>
<path d="M632.928 341.458L639.174 326.75L641.256 311.515L645.42 297.332L636.676 277.369L635.427 254.255L648.335 225.363L656.247 229.04L673.319 236.92L697.887 265.287L701.218 278.945L687.06 309.939L679.565 334.629L670.404 347.762L659.161 349.864L655.83 340.408L650.417 339.357L643.338 348.288L632.928 341.458Z" fill="#ECECEC"/>
</svg>
