<svg width="2815" height="2699" viewBox="0 0 2815 2699" fill="none" xmlns="http://www.w3.org/2000/svg">
<path d="M1161.34 1238.18L1167.59 1247.64L1155.51 1251.84L1145.52 1257.62L1120.95 1261.82L1098.88 1268.65L1088.89 1283.36L1096.8 1297.54L1102.63 1314.35L1094.3 1328.54L1097.63 1341.67L1093.88 1353.75L1072.23 1352.7L1085.14 1374.76L1072.23 1383.7L1066.4 1403.66L1070.98 1424.14L1063.49 1433.6L1054.74 1430.45L1038.09 1435.18L1037.25 1444.11H1020.18L1010.6 1463.54L1013.93 1491.91L986.452 1506.09L970.212 1502.94L966.465 1510.3L952.307 1506.09L930.238 1511.35L890.264 1494.01L906.503 1463.54L901.923 1442.01L884.018 1436.23L879.021 1414.69L867.778 1387.9L874.44 1369.51L864.03 1364.26L866.112 1339.57L868.611 1297.54L893.178 1310.68L909.418 1305.95L911.084 1290.71L927.74 1285.99L938.566 1275.48L937.733 1248.69L955.222 1241.86L956.471 1230.3L968.547 1239.23L975.209 1240.28H987.701L1005.61 1247.64L1013.1 1251.31L1027.26 1240.81L1036 1247.11L1039.75 1231.88L1053.08 1232.4L1055.57 1227.67L1054.74 1214.02L1061.82 1202.46L1075.56 1209.81L1075.15 1220.32L1082.22 1221.9L1085.97 1250.26L1097.21 1261.3L1103.46 1253.94L1112.62 1250.79L1123.03 1235.55L1138.85 1238.18H1161.34Z" fill="#ECECEC"/>
<path d="M527.579 1193L520.084 1194.05L508.425 1174.62L507.592 1169.36H498.015L490.103 1160.43L485.939 1160.96L475.946 1151.5L458.457 1143.1L458.04 1126.81L452.627 1115.26L481.775 1110L487.605 1118.41L496.766 1124.19L493.851 1132.59L507.176 1144.15L502.595 1155.18L513.422 1164.11L523.832 1169.36L527.579 1193Z" fill="#ECECEC"/>
<path d="M520.084 1194.05L504.261 1189.33L490.936 1174.09L485.939 1160.96L490.103 1160.43L498.015 1169.36H507.592L508.425 1174.62L520.084 1194.05Z" fill="#ECECEC"/>
<path d="M546.317 1104.75L556.727 1091.09L571.301 1108.43L586.292 1132.59L596.702 1134.17L604.613 1143.1L587.124 1145.72L587.541 1171.99L585.875 1183.55L578.796 1191.43L582.128 1207.71L576.714 1209.81L560.475 1191.95L565.472 1175.67L557.56 1165.69L549.648 1168.31L527.579 1193L523.832 1169.36L513.422 1164.11L502.595 1155.18L507.176 1144.15L493.851 1132.59L496.766 1124.19L487.605 1118.41L481.775 1110L486.356 1104.22L503.844 1114.21L515.92 1115.78L518.418 1112.1L504.677 1093.72L509.674 1089.52L515.92 1090.57L533.825 1110.53L543.819 1113.15L546.317 1104.75Z" fill="#ECECEC"/>
<path d="M1651.03 1756.67L1653.52 1780.84L1644.78 1775.58L1649.36 1802.9L1640.62 1785.57L1637.29 1768.23L1631.04 1751.95L1619.38 1732.51L1597.73 1730.93L1601.47 1745.12L1596.48 1763.5L1585.65 1756.67L1583.15 1762.98L1576.07 1759.3L1566.91 1756.15L1560.25 1728.31L1549.42 1703.09L1550.67 1682.6L1535.27 1673.67L1539.01 1661.59L1551.51 1648.98L1532.35 1631.12L1537.35 1608.01L1557.75 1622.72L1569 1624.29L1573.99 1647.93L1596.48 1652.66L1617.71 1652.13L1631.87 1657.91L1625.21 1686.28L1615.22 1688.38L1610.22 1707.29L1625.21 1725.15L1626.46 1703.09H1632.7L1651.03 1756.67Z" fill="#ECECEC"/>
<path d="M1601.89 1563.36L1612.72 1574.39L1614.8 1594.87L1596.06 1595.93L1576.49 1593.82L1563.17 1599.08L1540.26 1585.94L1538.6 1579.64L1549.42 1554.42L1560.25 1546.02L1578.16 1553.37L1590.23 1554.42L1601.89 1563.36Z" fill="#ECECEC"/>
<path d="M2171.53 838.412L2209 862.052L2233.99 892.52H2265.63L2276.46 879.912L2305.19 869.931L2310.6 899.875L2309.35 911.957L2321.01 947.679L2323.51 980.249L2294.78 974.47L2282.71 986.027L2302.28 1014.39L2318.52 1053.79L2308.11 1054.32L2316.02 1071.65L2293.12 1051.69V1070.6L2266.47 1084.79L2278.12 1102.65L2258.97 1101.07L2243.98 1090.57L2239.4 1114.73L2223.16 1132.59L2214.42 1154.13L2188.18 1163.59L2178.19 1179.35L2158.2 1188.8L2163.61 1173.04L2154.04 1159.91L2162.37 1137.32L2143.63 1119.98L2129.47 1131.54L2114.48 1155.18L2109.07 1176.72L2088.25 1178.29L2082.83 1194.05L2102.82 1216.64L2122.81 1222.42L2128.64 1237.13L2149.87 1247.11L2165.7 1222.95L2190.26 1236.08L2204.84 1237.13L2214.42 1254.47L2186.52 1263.92L2182.35 1282.31L2166.53 1299.12L2162.78 1322.76L2192.35 1341.14L2211.5 1374.24L2234.4 1405.23L2257.3 1430.97L2263.97 1456.19L2252.31 1465.65L2262.3 1483.51L2278.54 1494.01L2281.87 1521.33L2282.29 1548.12L2270.63 1551.27L2261.89 1587.52L2252.31 1632.17L2238.15 1672.1L2211.5 1703.09L2184.02 1731.98L2158.62 1735.66L2146.54 1750.37L2136.97 1739.86L2126.56 1756.15L2096.57 1773.48L2072.42 1778.21L2069.51 1813.93L2056.6 1816.03L2047.44 1791.34L2051.19 1778.74L2018.71 1767.7L2008.71 1773.48L1984.15 1764.55L1971.24 1750.89L1972.49 1731.46L1950.42 1725.15L1937.51 1712.55L1920.44 1730.41L1898.37 1734.61L1880.05 1734.08L1868.8 1742.49L1857.56 1747.22L1865.89 1786.09L1853.4 1785.04L1850.07 1777.16L1847.98 1762.98L1832.16 1772.96L1821.33 1766.65L1802.6 1754.05L1805.93 1726.2L1790.52 1719.38L1780.53 1688.38L1757.21 1694.16L1754.29 1654.24L1771.78 1625.87L1768.03 1598.03L1762.62 1572.29L1751.38 1564.41L1740.14 1544.44L1727.23 1547.07L1701.83 1541.82L1706.82 1527.63L1691.83 1506.62L1678.51 1520.8L1658.11 1512.92L1635.62 1533.94L1619.38 1559.15L1601.89 1563.36L1590.23 1554.42L1578.16 1553.37L1560.25 1546.02L1549.42 1554.42L1538.6 1579.64L1532.35 1552.85L1519.44 1560.2L1492.38 1556.53L1465.31 1549.17L1444.49 1533.94L1425.75 1527.63L1415.34 1511.35L1401.6 1506.62L1374.95 1484.56L1354.97 1474.05L1347.05 1481.93L1311.24 1458.29L1285.43 1437.28L1272.1 1399.98L1289.17 1404.71L1286.68 1387.37L1274.18 1370.04L1270.85 1342.72L1238.79 1302.8L1199.23 1289.66L1187.16 1263.4L1167.59 1247.64L1161.34 1238.18L1153.84 1219.27L1151.76 1206.14L1136.36 1198.26L1130.11 1201.93L1117.2 1170.41L1121.78 1163.06L1116.79 1155.18L1133.86 1139.42L1147.18 1132.59L1171.33 1137.32L1173.83 1115.78L1200.48 1112.1L1204.65 1098.45L1233.38 1080.59L1234.21 1073.23L1227.13 1053.79L1239.21 1045.39L1202.56 987.603L1240.46 974.47L1248.78 967.116L1244.62 907.755L1289.59 918.786L1296.25 903.552L1285.84 870.982L1301.67 867.83L1309.58 845.767L1316.66 843.14L1330.4 866.254L1354.13 883.59L1388.28 895.672L1412.43 922.464L1418.26 960.812L1430.75 975.521L1457.82 981.299L1487.8 985.502L1521.11 1006.51L1535.27 1010.19L1556.09 1040.66L1575.66 1060.62L1598.98 1059.57L1646.03 1067.45L1672.68 1062.72L1696 1067.45L1735.14 1087.94H1760.96L1774.7 1097.92L1793.02 1080.06L1823 1068.5L1854.65 1067.45L1875.05 1055.89L1883.38 1038.03L1893.37 1026.48L1885.46 1015.45L1873.38 1002.84L1875.47 981.299L1888.79 984.451L1913.36 991.281L1926.68 973.42L1953.33 960.812L1958.75 938.748L1969.16 929.293L1997.47 925.09L2015.79 928.767L2012.46 917.21L1982.48 894.096L1960.83 883.59L1950.42 895.672L1927.52 890.419L1917.94 894.621L1906.28 881.488L1905.03 848.393L1902.53 823.703L1933.35 836.311L1951.67 815.823L1943.76 801.114L1942.92 766.968L1948.34 756.462L1937.93 738.601L1922.52 731.247L1929.6 714.962L1950.83 709.183L1976.65 708.133L2012.46 718.114L2037.45 729.671L2069.51 762.241L2085.33 776.424L2104.07 796.386L2129.89 827.906L2171.53 838.412Z" fill="#ECECEC"/>
<path d="M464.702 1061.15L485.939 1067.98L494.683 1081.64L509.674 1089.52L504.677 1093.72L518.418 1112.1L515.92 1115.78L503.844 1114.21L486.355 1104.22L481.775 1110L452.627 1115.26L429.308 1098.45L406.406 1100.02L407.656 1085.84L398.911 1063.25L384.754 1050.64L372.262 1046.96L363.101 1036.98L364.766 1032.78L383.921 1038.56L415.984 1043.81L447.63 1060.1L452.627 1066.4L464.702 1061.15Z" fill="#ECECEC"/>
<path d="M2003.3 2697.52L1977.48 2698.05L1958.75 2670.21L1929.18 2642.36L1919.6 2621.88L1902.53 2594.56L1891.29 2569.34L1873.8 2522.07L1853.4 2493.7L1846.32 2464.81L1837.16 2438.54L1815.5 2417.53L1802.6 2388.63L1784.27 2369.72L1758.46 2332.42L1755.96 2315.09L1770.95 2316.67L1808.01 2322.97L1829.66 2356.06L1848.82 2379.18L1862.14 2392.84L1885.04 2429.08L1909.19 2429.61L1929.18 2452.72L1943.34 2481.09L1961.24 2496.85L1951.67 2524.17L1965.41 2535.72L1973.74 2536.77L1977.48 2560.41L1985.4 2578.8L2002.47 2581.95L2013.29 2603.49L2006.22 2645.52L2003.3 2697.52Z" fill="#ECECEC"/>
<path d="M1347.05 1481.93L1335.4 1497.69L1331.65 1529.21L1355.8 1541.82L1379.95 1558.1L1412.43 1577.01L1444.49 1581.74L1460.32 1598.55L1478.22 1601.7L1506.95 1609.58L1526.11 1609.06L1526.52 1595.92L1520.28 1574.39L1519.44 1560.2L1532.35 1552.85L1538.6 1579.64L1540.26 1585.94L1563.17 1599.08L1576.49 1593.82L1596.06 1595.92L1614.8 1594.87L1612.72 1574.39L1601.89 1563.35L1619.38 1559.15L1635.62 1533.94L1658.11 1512.92L1678.51 1520.8L1691.83 1506.62L1706.82 1527.63L1701.83 1541.82L1727.23 1547.07L1731.39 1559.68L1724.31 1565.98L1730.14 1586.47L1712.65 1580.69L1686.84 1603.8L1690.58 1623.24L1682.26 1651.61L1683.51 1667.89L1676.84 1695.74L1657.69 1687.86L1661.44 1723.05L1657.27 1734.61L1661.44 1748.79L1651.03 1756.67L1632.7 1703.09H1626.46L1625.21 1725.15L1610.22 1707.29L1615.22 1688.38L1625.21 1686.28L1631.87 1657.91L1617.71 1652.13L1596.48 1652.66L1573.99 1647.93L1569 1624.29L1557.75 1622.72L1537.35 1608.01L1532.35 1631.12L1551.51 1648.98L1539.01 1661.59L1535.27 1673.67L1550.67 1682.6L1549.42 1703.09L1560.25 1728.31L1566.91 1756.15L1564.83 1768.76L1549.01 1768.23L1521.53 1775.06L1525.27 1800.27L1515.28 1820.24L1484.05 1843.35L1461.98 1882.75L1446.16 1904.29L1425.34 1926.35L1426.59 1941.59L1415.76 1949.99L1395.77 1962.07L1384.95 1963.65L1379.95 1989.39L1387.86 2033.52L1390.78 2061.36L1382.86 2093.4L1385.78 2150.66L1373.7 2152.24L1364.13 2177.98L1372.04 2189.54L1350.8 2198.99L1343.72 2221.58L1334.56 2231.56L1311.24 2200.04L1298.34 2152.77L1287.93 2118.62L1278.76 2102.86L1264.61 2070.29L1256.28 2028.26L1250.45 2007.25L1225.88 1961.02L1211.31 1895.36L1200.48 1852.28L1197.15 1811.31L1190.07 1779.79L1158.01 1800.27L1141.35 1796.07L1107.62 1755.1L1117.62 1743.01L1109.71 1729.88L1080.14 1700.99L1093.47 1678.4H1143.85L1136.36 1649.51L1121.78 1632.7L1115.95 1606.43L1099.3 1591.72L1119.7 1556L1146.77 1558.63L1165.5 1523.43L1174.66 1489.28L1190.9 1455.14L1186.74 1430.97L1202.56 1411.54L1181.33 1395.25L1169.25 1372.14L1155.51 1342.72L1163.84 1328.01L1199.23 1336.42L1222.97 1331.16L1238.79 1302.8L1270.85 1342.72L1274.18 1370.04L1286.68 1387.37L1289.17 1404.71L1272.1 1399.98L1285.43 1437.28L1311.24 1458.29L1347.05 1481.93Z" fill="#ECECEC"/>
<path d="M2619.16 1247.64L2621.65 1274.43L2632.06 1291.24L2629.57 1314.88L2607.08 1330.64L2568.77 1332.74L2550.45 1371.61L2530.88 1358.48L2520.89 1333.26L2485.08 1340.62L2463.84 1356.38L2438.02 1357.43L2468.84 1382.12L2472.17 1439.38L2461.76 1453.56L2446.77 1440.43L2443.02 1409.96L2425.95 1400.51L2409.29 1377.39L2427.2 1366.88L2431.78 1345.35L2448.02 1328.01L2456.34 1304.9L2496.73 1294.92L2522.97 1301.75V1241.86L2544.2 1258.14L2562.94 1224.52L2570.02 1211.39L2565.86 1170.41L2544.62 1132.59L2543.79 1111.58L2563.78 1105.28L2597.92 1152.03L2609.58 1178.82L2604.17 1212.97L2619.16 1247.64Z" fill="#ECECEC"/>
<path d="M2569.6 1012.29L2588.34 1019.12L2595.84 1005.46L2620.82 1042.76L2594.17 1051.69L2592.51 1084.79L2547.12 1062.2L2553.78 1098.45L2530.05 1098.97L2510.48 1065.88L2507.98 1040.14L2529.63 1038.56L2511.31 992.331L2503.81 966.59L2547.54 1001.26L2569.6 1012.29Z" fill="#ECECEC"/>
<path d="M975.209 707.082L993.531 705.506L1031.84 675.037L1028.51 685.544L1063.49 710.234L1139.69 792.184L1144.27 775.374L1179.25 793.76L1205.06 785.355L1218.8 791.133L1235.88 810.045L1252.53 816.349L1266.27 830.532L1291.26 825.805L1309.58 845.767L1301.67 867.83L1285.84 870.982L1296.25 903.552L1289.59 918.786L1244.62 907.755L1248.78 967.116L1240.46 974.47L1202.56 987.603L1239.21 1045.39L1227.13 1053.79L1234.21 1073.23L1219.64 1067.98L1205.48 1055.9L1172.58 1052.74L1136.77 1051.69L1130.11 1055.37L1095.97 1041.19L1085.56 1048.54L1087.64 1067.98L1049.33 1056.42L1036.42 1061.15L1035.17 1075.86L1024.34 1082.16L1001.86 1105.28L998.111 1129.44H989.783L980.206 1113.68L952.307 1112.63L941.897 1085.31L931.071 1084.79L924.825 1051.17L893.178 1027L857.368 1029.63L833.633 1034.36L806.151 1004.41L786.164 991.806L747.855 968.166L743.274 965.54L693.306 984.977L719.123 1107.9L708.297 1109.48L688.31 1083.21L672.07 1073.76L648.752 1080.59L641.256 1092.14L638.758 1083.74L641.256 1070.08L635.01 1058.52L607.944 1046.96L592.538 1017.02L579.213 1008.62L576.714 997.584L597.951 1000.74L593.787 976.572L610.859 971.318L630.43 976.046L627.515 944.002L619.604 923.514L598.784 925.09L579.213 917.21L557.976 931.394L539.655 938.749L527.996 932.97L527.163 916.16L509.258 894.096L494.267 895.147L472.198 873.083L479.277 847.868L471.782 841.564L480.942 805.317L505.926 824.229L503.428 800.589L537.156 765.393L568.803 764.342L618.771 786.931L646.253 800.064L664.575 786.405L696.638 785.88L727.035 802.69L730.366 792.709L759.514 794.285L760.347 779.051L721.205 756.462L735.779 740.702L729.533 732.297L746.189 723.892L724.953 701.829L730.782 690.797L801.57 679.765L808.649 671.885L854.037 659.803L866.945 646.67L904.838 653.499L923.159 686.594L941.064 678.715L970.629 689.746L975.209 707.082Z" fill="#ECECEC"/>
<path d="M1234.21 1073.23L1233.38 1080.59L1204.65 1098.45L1200.48 1112.1L1173.83 1115.78L1171.33 1137.32L1147.18 1132.59L1133.86 1139.42L1116.79 1155.18L1121.78 1163.06L1117.2 1170.41L1077.23 1175.67L1047.66 1164.64L1024.76 1167.26L1022.26 1148.35L1047.25 1153.6L1053.08 1143.62L1070.15 1146.78L1092.22 1122.61L1062.24 1104.75L1048.91 1113.15L1029.76 1100.55L1042.25 1079.01L1035.17 1075.86L1036.42 1061.15L1049.33 1056.42L1087.64 1067.98L1085.56 1048.54L1095.97 1041.19L1130.11 1055.37L1136.77 1051.69L1172.58 1052.74L1205.48 1055.89L1219.64 1067.98L1234.21 1073.23Z" fill="#ECECEC"/>
<path d="M2022.46 2020.91L2029.95 2043.5L2030.37 2083.95L1992.89 2110.21L2004.55 2130.18L1979.98 2132.8L1960.83 2146.46L1940.84 2141.73L1930.01 2123.87L1915.44 2089.2L1906.7 2048.23L1919.6 2020.38L1949.17 2014.08L1971.24 2018.81L1992.06 2031.94L2000.39 2008.83L2022.46 2020.91Z" fill="#ECECEC"/>
<path d="M2285.2 1227.15V1224L2295.61 1225.05L2298.11 1210.34L2313.1 1208.24L2321.43 1206.14V1198.26L2355.99 1237.66L2369.73 1259.72L2383.89 1298.59L2381.81 1316.98L2363.9 1323.28L2350.99 1337.47L2331.84 1340.09L2323.1 1321.71L2318.52 1296.49L2296.45 1261.82L2310.6 1256.04L2285.2 1227.15Z" fill="#ECECEC"/>
<path d="M2022.46 2020.91L2000.39 2008.83L1992.06 2031.94L1971.24 2018.81L1977.48 2003.57L1975.82 1975.21L1953.75 1945.79L1948.34 1912.17L1927.52 1884.85L1909.61 1882.75L1906.28 1894.31L1892.95 1895.36L1885.04 1889.58L1862.97 1909.54L1858.81 1879.07L1860.48 1843.88L1844.65 1842.3L1840.9 1821.81L1829.66 1811.31L1832.99 1799.22L1850.07 1777.16L1853.4 1785.04L1865.89 1786.09L1857.56 1747.22L1868.8 1742.49L1885.46 1769.28L1900.03 1799.75H1928.35L1940.84 1829.17L1927.1 1838.1L1922.1 1850.18L1952.5 1870.67L1976.23 1910.59L1994.56 1940.01L2014.96 1963.65L2023.29 1987.29L2022.46 2020.91Z" fill="#ECECEC"/>
<path d="M1423.26 2290.92L1403.27 2298.8L1391.19 2272.01L1385.36 2223.68L1393.69 2169.05L1410.76 2187.44L1422.42 2211.08L1435.33 2246.27L1432.83 2281.47L1423.26 2290.92Z" fill="#ECECEC"/>
<path d="M1850.07 1777.16L1832.99 1799.22L1829.66 1811.31L1817.17 1819.19L1805.51 1833.9L1789.27 1835.47L1783.03 1871.72L1773.86 1878.02L1788.44 1907.44L1805.51 1932.13L1817.59 1954.72L1811.76 1983.61L1804.26 1989.92L1811.76 2006.73L1829.66 2033.52L1833.83 2052.43L1834.66 2068.19L1845.9 2099.18L1835.08 2130.7L1825.91 2165.37L1822.17 2140.16L1827.58 2114.42L1818.42 2094.45L1817.59 2057.68L1806.76 2039.82L1795.52 1999.9L1787.19 1957.35L1774.28 1928.98L1760.96 1946.31L1736.8 1969.95L1723.06 1967.33L1708.07 1959.45L1711.82 1917.42L1703.49 1885.9L1681.42 1847.03L1682.67 1834.95L1668.52 1830.22L1649.36 1802.9L1644.78 1775.58L1653.52 1780.84L1651.03 1756.67L1661.44 1748.79L1657.27 1734.61L1661.44 1723.05L1657.69 1687.86L1676.84 1695.74L1683.51 1667.89L1682.26 1651.61L1690.58 1623.24L1686.84 1603.8L1712.65 1580.69L1730.14 1586.47L1724.31 1565.98L1731.39 1559.68L1727.23 1547.07L1740.14 1544.44L1751.38 1564.41L1762.62 1572.29L1768.03 1598.03L1771.78 1625.87L1754.29 1654.24L1757.21 1694.16L1780.53 1688.38L1790.52 1719.38L1805.93 1726.2L1802.6 1754.05L1821.33 1766.65L1832.16 1772.96L1847.98 1762.98L1850.07 1777.16Z" fill="#ECECEC"/>
<path d="M1632.7 817.399L1649.36 811.095L1673.1 806.893L1695.58 811.621L1723.06 826.855L1743.47 843.665H1762.62L1790.94 848.919L1805.93 840.513L1830.49 835.26L1848.82 812.146L1862.97 815.823L1879.21 826.855L1902.53 823.703L1905.03 848.393L1906.28 881.488L1917.94 894.621L1927.52 890.419L1950.42 895.672L1960.83 883.59L1982.48 894.096L2012.46 917.21L2015.79 928.767L1997.47 925.09L1969.16 929.293L1958.75 938.748L1953.33 960.812L1926.68 973.42L1913.36 991.281L1888.79 984.451L1875.47 981.299L1873.38 1002.84L1885.46 1015.45L1893.37 1026.48L1883.38 1038.03L1875.05 1055.89L1854.65 1067.45L1823 1068.5L1793.02 1080.06L1774.7 1097.92L1760.96 1087.94H1735.14L1696 1067.45L1672.68 1062.72L1646.03 1067.45L1598.98 1059.57L1575.66 1060.62L1556.09 1040.66L1535.27 1010.19L1521.11 1006.51L1487.8 985.502L1457.82 981.299L1430.75 975.521L1418.26 960.812L1412.43 922.463L1388.28 895.672L1354.13 883.59L1330.4 866.254L1316.66 843.14L1336.23 837.362L1364.13 809.519L1388.69 794.285L1410.76 804.266L1432.42 804.792L1452.4 820.026L1473.22 821.077L1506.54 829.482L1516.53 806.368L1499.87 787.456L1505.29 753.835L1534.43 766.968L1554.42 771.171L1582.32 779.576L1597.31 803.741L1632.7 817.399Z" fill="#ECECEC"/>
<path d="M1916.27 2290.4L1922.1 2293.55L1936.68 2314.04L1947.09 2336.63L1949.59 2359.22L1947.5 2374.45L1950 2386.01L1952.08 2405.97L1960.83 2415.43L1970.41 2445.37V2456.4L1953.75 2459.03L1930.85 2433.81L1902.53 2407.02L1899.2 2389.68L1885.04 2367.1L1880.88 2339.25L1871.72 2320.87L1873.38 2296.18L1867.55 2281.99L1871.3 2276.22L1891.29 2290.92L1893.79 2308.26L1909.19 2304.06L1916.27 2290.4Z" fill="#ECECEC"/>
<path d="M1519.44 1560.2L1520.28 1574.39L1526.52 1595.92L1526.11 1609.06L1506.95 1609.58L1478.22 1601.7L1460.32 1598.55L1444.49 1581.74L1412.43 1577.01L1379.95 1558.1L1355.8 1541.82L1331.65 1529.21L1335.4 1497.69L1347.05 1481.93L1354.97 1474.05L1374.95 1484.56L1401.6 1506.62L1415.34 1511.35L1425.75 1527.63L1444.49 1533.94L1465.31 1549.17L1492.38 1556.53L1519.44 1560.2Z" fill="#ECECEC"/>
<path d="M1238.79 1302.8L1222.97 1331.16L1199.23 1336.42L1163.84 1328.01L1155.51 1342.72L1169.25 1372.14L1181.33 1395.25L1202.56 1411.54L1186.74 1430.97L1190.9 1455.14L1174.66 1489.28L1165.5 1523.43L1146.77 1558.63L1119.7 1556L1099.3 1591.72L1115.95 1606.43L1121.78 1632.7L1136.36 1649.51L1143.85 1678.4H1093.47L1080.14 1700.99L1062.65 1692.58L1053.49 1668.42L1033.09 1642.68L991.449 1648.98L953.973 1649.51L922.326 1654.24L926.907 1615.36L958.137 1597.5L954.389 1582.27L943.146 1576.49L938.982 1547.07L915.248 1532.36L903.588 1511.87L890.264 1494.01L930.238 1511.35L952.307 1506.1L966.465 1510.3L970.212 1502.94L986.452 1506.1L1013.93 1491.91L1010.6 1463.54L1020.18 1444.11H1037.25L1038.09 1435.18L1054.74 1430.45L1063.49 1433.6L1070.98 1424.14L1066.4 1403.66L1072.23 1383.7L1085.14 1374.76L1072.23 1352.7L1093.88 1353.75L1097.63 1341.67L1094.3 1328.54L1102.63 1314.35L1096.8 1297.54L1088.89 1283.36L1098.88 1268.65L1120.95 1261.82L1145.52 1257.62L1155.51 1251.84L1167.59 1247.64L1187.16 1263.4L1199.23 1289.66L1238.79 1302.8Z" fill="#ECECEC"/>
<path d="M2483.41 2216.33L2487.16 2238.92L2489.66 2257.83L2482.99 2288.3L2472.58 2254.15L2462.59 2271.49L2471.33 2296.18L2465.5 2311.94L2436.77 2292.5L2428.86 2267.81L2435.11 2252.05L2419.28 2235.77L2412.62 2249.95L2401.8 2248.37L2385.14 2267.29L2380.98 2257.3L2388.47 2228.94L2402.63 2219.48L2414.7 2206.87L2423.86 2222.11L2441.35 2213.18L2444.27 2197.94L2460.92 2196.89L2457.59 2171.15L2478 2186.91L2480.91 2203.72L2483.41 2216.33Z" fill="#ECECEC"/>
<path d="M2422.62 2153.29L2415.12 2164.32L2409.29 2185.86L2402.63 2195.84L2386.39 2172.73L2390.55 2163.27L2395.97 2153.82L2396.8 2133.33L2409.71 2131.23L2407.63 2153.82L2422.62 2121.25V2153.29Z" fill="#ECECEC"/>
<path d="M2369.32 2099.18L2384.31 2109.69H2398.88L2399.71 2123.35L2390.14 2138.06L2375.98 2148.04L2373.9 2132.28L2374.31 2114.94L2369.32 2099.18Z" fill="#ECECEC"/>
<path d="M2330.17 1875.92L2346 1885.9L2351.83 1876.97L2355.16 1885.38L2353.49 1899.56L2364.32 1923.73L2361.82 1951.57L2349.75 1962.6L2349.33 1989.92L2357.66 2016.71L2370.15 2020.38L2380.14 2016.71L2411.37 2035.09L2410.96 2053.48L2419.7 2061.88L2418.45 2077.12L2398.88 2060.83L2388.47 2042.97L2383.47 2055.58L2366.82 2035.09L2346 2040.35L2333.51 2032.99L2333.09 2018.81L2339.75 2010.4L2331.84 2002.52L2330.17 2014.61L2316.43 1995.17L2311.02 1980.46L2306.44 1948.42L2317.27 1959.45L2312.69 1906.39L2316.02 1875.92H2330.17Z" fill="#ECECEC"/>
<path d="M2316.02 1071.65L2321.85 1077.43L2312.69 1075.33L2308.52 1086.89L2307.27 1097.92L2318.93 1122.09L2311.02 1129.44L2309.77 1135.22L2306.02 1145.2L2293.95 1150.98L2288.12 1159.91L2293.53 1174.09L2292.28 1177.77L2303.11 1183.55L2321.43 1198.26V1206.14L2313.1 1208.24L2298.11 1210.34L2295.61 1225.05L2285.2 1224V1227.15L2271.88 1220.85L2271.46 1227.15L2266.05 1229.78L2263.13 1223.47L2256.06 1220.32L2248.14 1215.07L2248.56 1200.36L2252.31 1196.16L2248.14 1190.38L2246.48 1171.99L2242.73 1166.74L2228.57 1163.06L2214.42 1154.13L2223.16 1132.59L2239.4 1114.73L2243.98 1090.57L2258.97 1101.07L2278.12 1102.65L2266.47 1084.79L2293.12 1070.6V1051.69L2316.02 1071.65Z" fill="#ECECEC"/>
<path d="M1971.24 2018.81L1949.17 2014.08L1919.6 2020.38L1906.7 2048.23L1915.44 2089.2L1893.37 2073.44L1873.38 2074.49L1874.63 2047.7H1854.23L1855.06 2085L1845.9 2134.38L1840.07 2164.32L1842.99 2188.49L1858.39 2189.54L1869.64 2220.53L1875.05 2249.42L1889.21 2268.86L1903.36 2272.54L1916.27 2290.4L1909.19 2304.06L1893.79 2308.26L1891.29 2290.92L1871.3 2276.22L1867.55 2281.99L1857.98 2269.39L1852.98 2252.58L1839.66 2233.66L1827.58 2217.38L1824.67 2237.34L1819.25 2218.43L1820.92 2197.42L1825.91 2165.37L1835.08 2130.7L1845.9 2099.18L1834.66 2068.19L1833.83 2052.43L1829.66 2033.52L1811.76 2006.73L1804.26 1989.92L1811.76 1983.61L1817.59 1954.72L1805.51 1932.13L1788.44 1907.44L1773.86 1878.02L1783.03 1871.72L1789.27 1835.47L1805.51 1833.9L1817.17 1819.19L1829.66 1811.31L1840.9 1821.81L1844.65 1842.3L1860.48 1843.88L1858.81 1879.07L1862.97 1909.54L1885.04 1889.58L1892.95 1895.36L1906.28 1894.31L1909.61 1882.75L1927.52 1884.85L1948.34 1912.17L1953.75 1945.79L1975.82 1975.21L1977.48 2003.57L1971.24 2018.81Z" fill="#ECECEC"/>
<path d="M1053.08 1143.62L1047.25 1153.6L1022.26 1148.35L1024.76 1167.26L1047.66 1164.64L1077.23 1175.67L1117.2 1170.41L1130.11 1201.93L1136.36 1198.26L1151.76 1206.14L1153.84 1219.27L1161.34 1238.18H1138.85L1123.03 1235.55L1112.62 1250.79L1103.46 1253.94L1097.21 1261.3L1085.97 1250.26L1082.22 1221.9L1075.15 1220.32L1075.56 1209.81L1061.82 1202.46L1054.74 1214.02L1055.57 1227.67L1053.08 1232.4L1039.75 1231.88L1036 1247.11L1027.26 1240.81L1013.1 1251.31L1005.61 1247.64L1011.02 1213.49L1001.03 1188.28L983.537 1180.4L986.035 1165.69L1004.36 1167.26L1010.6 1148.88L1012.69 1127.34L1039.75 1119.46L1038.92 1135.22L1044.33 1144.15L1053.08 1143.62Z" fill="#ECECEC"/>
<path d="M975.209 1240.28L968.547 1239.23L956.471 1230.3L955.222 1241.86L937.733 1248.69L938.566 1275.48L927.74 1285.99L911.084 1290.71L909.418 1305.95L893.178 1310.68L868.611 1297.54L861.532 1269.7L844.876 1268.12L814.479 1238.71L796.574 1235.03L769.091 1217.69L752.852 1214.54L744.524 1220.85L729.533 1219.8L717.041 1239.23L698.72 1245.54L690.808 1221.9L688.31 1186.7L669.155 1175.14L670.821 1152.55L656.247 1150.45L655.83 1122.09L677.9 1130.49L694.972 1119.98L675.401 1099.5L665.408 1080.59L649.584 1088.99L652.083 1113.68L641.256 1092.14L648.752 1080.59L672.07 1073.76L688.31 1083.21L708.297 1109.48L719.123 1107.9L743.691 1107.38L736.612 1090.57L752.435 1079.01L766.593 1059.57L799.488 1077.43L807.4 1103.7L816.977 1110.53L839.879 1108.95L848.624 1115.26L866.529 1149.93L896.093 1173.04L913.582 1188.8L939.815 1205.09L971.878 1219.8L975.209 1240.28Z" fill="#ECECEC"/>
<path d="M1035.17 1075.86L1042.25 1079.01L1029.76 1100.55L1048.91 1113.15L1062.24 1104.75L1092.22 1122.61L1070.15 1146.78L1053.08 1143.62L1044.33 1144.15L1038.92 1135.22L1039.75 1119.46L1012.69 1127.34L1010.6 1148.88L1004.36 1167.26L986.036 1165.69L983.537 1180.4L1001.03 1188.28L1011.02 1213.49L1005.61 1247.64L987.701 1240.28H975.209L971.878 1219.8L939.815 1205.09L913.582 1188.8L896.093 1173.04L866.528 1149.93L848.624 1115.26L839.879 1108.95L816.977 1110.53L807.4 1103.7L799.488 1077.43L766.592 1059.57L752.435 1079.01L736.612 1090.57L743.69 1107.38L719.123 1107.9L693.306 984.977L743.274 965.54L747.854 968.166L786.164 991.806L806.15 1004.41L833.633 1034.36L857.368 1029.63L893.178 1027L924.824 1051.17L931.07 1084.79L941.897 1085.31L952.307 1112.63L980.206 1113.68L989.783 1129.44H998.111L1001.86 1105.28L1024.34 1082.16L1035.17 1075.86Z" fill="#ECECEC"/>
<path d="M2008.71 1773.48L1981.65 1801.85L1966.24 1833.9L1963.74 1857.53L1985.81 1892.73L2012.88 1936.86L2036.61 1957.87L2053.69 1984.66L2070.34 2047.18L2072.01 2106.54L2054.1 2128.6L2028.7 2150.66L2011.21 2178.51L1983.73 2210.02L1974.15 2188.49L1979.15 2165.37L1960.83 2146.46L1979.98 2132.8L2004.55 2130.18L1992.89 2110.21L2030.37 2083.95L2029.95 2043.5L2022.46 2020.91L2023.29 1987.29L2014.96 1963.65L1994.56 1940.01L1976.23 1910.59L1952.5 1870.67L1922.1 1850.18L1927.1 1838.1L1940.84 1829.17L1928.35 1799.75H1900.03L1885.46 1769.28L1868.8 1742.49L1880.05 1734.08L1898.37 1734.61L1920.44 1730.41L1937.51 1712.55L1950.42 1725.15L1972.49 1731.46L1971.24 1750.89L1984.15 1764.55L2008.71 1773.48Z" fill="#ECECEC"/>
<path d="M2437.61 795.861L2494.65 853.646L2457.59 843.14L2473 890.419L2512.97 924.039L2525.47 947.154L2498.4 927.191L2498.82 952.932L2479.25 925.09L2463.42 893.045L2440.1 857.849L2430.11 832.634L2403.46 789.557L2370.15 757.513L2341.83 713.386L2349.75 698.677L2331.42 683.968L2336.84 679.24L2357.24 700.253L2385.97 731.247L2407.63 763.291L2437.61 795.861Z" fill="#ECECEC"/>
<path d="M1850.07 117.147L1825.5 117.672L1788.44 114.52L1784.27 112.944L1787.19 102.438L1804.68 99.811L1839.66 110.317L1850.07 117.147Z" fill="#ECECEC"/>
<path d="M477.611 185.964L468.45 188.065L412.236 184.388L402.659 172.305L369.764 164.951L361.436 149.716L376.01 143.938L369.347 129.229L391.832 106.115L375.176 102.963L403.076 79.3235L392.666 67.2411L420.98 53.5827L463.87 36.7725L512.588 32.0446L533.408 22.5888L561.308 19.4369L578.796 29.418L573.383 37.2978L525.914 50.4308L484.69 62.5132L448.463 87.7286L436.804 113.995L423.062 140.261L435.971 162.849L477.611 185.964Z" fill="#ECECEC"/>
<path d="M2321.85 1077.43L2316.02 1071.65L2308.11 1054.32L2318.52 1053.79L2302.28 1014.39L2282.71 986.027L2294.78 974.47L2323.51 980.249L2321.01 947.679L2309.35 911.957L2310.6 899.875L2305.19 869.931L2276.46 879.913L2265.63 892.52H2233.99L2209 862.052L2171.53 838.412L2129.89 827.906L2104.07 796.387L2085.33 776.424L2069.51 762.241L2037.45 729.671L2012.46 718.114L1976.65 708.133L1950.83 709.183L1929.6 714.962L1922.52 731.247L1937.93 738.601L1948.34 756.462L1942.92 766.969L1943.76 801.114L1951.67 815.823L1933.35 836.311L1902.53 823.703L1879.21 826.855L1862.97 815.823L1848.82 812.146L1830.49 835.26L1805.93 840.513L1790.94 848.919L1762.62 843.665H1743.47L1723.06 826.855L1695.58 811.621L1673.1 806.893L1649.36 811.096L1632.7 817.399L1597.31 803.741L1582.32 779.576L1554.42 771.171L1534.43 766.969L1505.29 753.836L1499.87 787.456L1516.53 806.368L1506.54 829.482L1473.22 821.077L1452.4 820.026L1432.42 804.792L1410.76 804.266L1388.69 794.285L1364.13 809.52L1336.23 837.362L1316.66 843.14L1309.58 845.767L1291.26 825.805L1266.27 830.532L1252.53 816.349L1235.88 810.045L1218.8 791.133L1205.06 785.355L1179.25 793.76L1144.27 775.374L1139.69 792.184L1063.49 710.234L1028.51 685.544L1031.84 675.037L993.53 705.506L975.209 707.082L970.628 689.746L941.064 678.715L923.159 686.594L904.837 653.499L866.945 646.67L854.036 659.803L808.649 671.885L801.57 679.765L730.782 690.797L724.952 701.829L746.189 723.892L729.533 732.297L735.779 740.702L721.205 756.462L760.346 779.051L759.514 794.285L730.366 792.709L727.034 802.69L696.637 785.88L664.574 786.405L646.253 800.064L618.77 786.931L568.802 764.342L537.156 765.393L503.428 800.589L505.926 824.229L480.942 805.317L471.781 841.564L479.276 847.868L472.198 873.083L494.267 895.147L509.257 894.096L527.162 916.16L527.995 932.97L539.654 938.749L533.825 958.185L514.67 963.439L499.68 997.584L524.664 1029.63L526.33 1051.69L556.727 1091.09L546.317 1104.75L543.818 1113.16L533.825 1110.53L515.92 1090.57L509.674 1089.52L494.683 1081.64L485.939 1067.98L464.702 1061.15L452.627 1066.4L447.63 1060.1L415.984 1043.81L383.921 1038.56L364.766 1032.78L363.101 1036.98L331.454 1008.62L305.638 996.008L284.401 976.572L299.392 971.318L312.716 944.002L298.975 930.869L327.707 917.21L326.041 909.856L308.136 915.109L306.47 900.925L315.631 891.47L335.618 889.368L336.868 878.337L329.372 859.95L334.786 843.14L333.12 833.159L301.057 822.653L288.982 823.178L273.991 807.944L259.001 813.197L231.102 801.64L230.686 795.336L221.108 781.152L204.869 779.576L201.538 769.595L205.285 762.766L189.462 744.38L169.058 747.532L162.812 745.956L158.648 753.31L151.153 752.26L142.825 731.247L136.579 720.74L139.91 717.588L156.15 718.639L162.812 711.81L155.734 703.405L141.576 697.626V691.848L132.832 686.069L117.008 665.056L119.923 656.651L115.343 641.417L95.3557 634.062L85.362 637.74L81.6143 629.86L59.5454 621.98L50.8011 603.068L46.6371 587.834L36.2271 581.005L42.8894 571.024L32.8957 541.606L43.722 523.745L39.9743 518.492L58.7123 501.156L36.2271 486.447L69.5391 447.573L83.6963 429.712L87.444 414.478L56.6303 393.991L60.378 374.028L39.9743 351.965L47.0534 326.75L19.9874 293.654L32.0631 271.591L1.6657 252.154L0 232.192L13.3251 229.565L39.9743 218.533L55.3814 208.552L87.444 225.363L136.163 232.192L209.866 264.762L226.938 278.42L233.184 297.857L217.777 313.091L190.711 320.971L106.598 298.908L94.5231 302.585L128.251 324.123L132.415 337.781L140.327 368.25L165.727 377.18L181.55 385.06L180.718 370.351L166.56 357.744L175.304 346.186L223.607 365.098L236.932 357.744L219.026 335.68L252.755 307.313L269.827 308.889L288.982 318.87L293.562 298.908L273.991 281.572L277.322 264.236L259.417 246.376L310.634 255.831L325.625 271.591L304.388 275.268L309.385 291.553L326.458 301.534L351.442 295.23L349.776 276.844L381.839 262.66L433.472 238.496L446.797 239.546L436.387 256.882L458.873 260.034L467.617 250.053L499.68 249.527L520.5 237.445L547.15 254.781L558.809 235.869L533.825 219.584L538.822 210.128L592.954 218.533L620.436 227.464L697.886 260.034L702.467 245.325L677.899 230.091L674.568 224.312L652.499 221.16L651.666 208.027L632.095 185.964L627.515 177.033L645.42 152.343L642.922 127.128L652.082 121.874L699.552 129.229L711.628 144.463L707.88 166.527L723.287 175.457L739.11 194.894L754.933 233.768L782.832 251.103L784.914 270.54L770.34 311.515L792.409 315.718L794.491 305.211L810.314 297.857L808.232 283.673L816.144 269.49L797.822 253.205L796.157 234.293L776.17 232.192L764.094 216.432L762.428 188.065L728.284 165.476L747.854 147.09L732.448 127.653L740.359 127.128L757.848 141.837L766.592 168.628L787.412 173.881L768.258 153.919L789.494 142.887L823.223 141.311L863.197 157.071L834.466 134.482L814.062 105.59L838.63 100.336L878.188 101.387L910.667 97.7097L887.348 84.0514L892.762 66.7157L910.25 65.6651L930.654 53.0574L969.379 49.3802L968.546 42.0257L1007.27 39.9244L1025.18 45.7029L1047.66 32.0446L1076.81 32.5699L1070.56 21.0128L1074.31 10.5064L1100.13 0L1134.69 8.40514L1120.12 14.709L1159.26 18.3862L1176.33 30.9939L1184.24 24.6901L1229.63 25.2154L1277.93 37.8231L1300.83 47.2789L1311.24 60.9372L1301.25 68.817L1273.77 83.526L1269.19 91.4058L1292.51 95.0831L1322.49 101.912L1332.48 96.659L1356.63 113.995L1357.46 107.165L1379.12 102.963L1435.75 107.165L1451.57 119.773L1524.02 123.976L1504.04 103.488L1543.6 108.216L1569 107.691L1610.22 121.874L1635.2 139.21L1636.87 150.767L1678.93 172.831L1716.4 183.862L1703.91 154.97L1743.05 167.052L1763.87 159.698L1804.68 168.103L1808.84 160.748L1840.49 164.425L1801.35 138.685L1810.09 127.128L1978.32 144.989L2011.21 161.274L2079.09 182.286L2140.71 177.033L2179.44 181.761L2206.92 193.318L2228.16 213.806L2258.55 221.685L2274.79 215.907L2303.94 215.382L2342.67 220.635L2371.4 217.483L2430.94 242.698L2441.35 233.768L2405.96 215.907L2398.46 203.299L2462.17 211.179L2495.49 209.603L2561.28 222.736L2600.83 235.344L2739.08 351.44L2730.75 364.573L2704.93 362.471L2739.08 378.231L2776.97 402.921L2794.46 410.801L2810.28 423.409L2814.45 431.288L2772.81 424.985L2745.33 447.573L2732.83 451.251L2726.17 472.789L2717.84 491.7L2724.92 505.884L2677.04 484.346L2651.64 508.511L2632.06 496.954L2626.24 510.612L2597.09 505.884L2610 526.372L2614.58 556.84L2626.65 569.448L2654.97 576.277L2692.86 621.98L2675.79 623.556L2689.94 649.822L2709.52 663.48L2688.7 679.765L2711.18 716.538L2687.45 724.418L2706.18 756.987L2699.11 787.456L2675.37 764.867L2631.65 718.114L2564.19 646.67L2537.13 603.068L2537.54 584.157L2525.88 569.448L2549.62 562.619L2548.78 523.22L2551.7 491.7L2562.11 467.01L2534.63 423.934L2515.06 426.561L2528.38 451.776L2513.39 485.397L2462.17 447.573L2424.28 458.08V509.561L2456.34 528.473L2420.95 536.878L2394.3 540.03L2376.4 517.441L2343.08 512.713L2332.67 527.948L2269.8 522.694L2214.83 531.625L2200.26 593.087L2179.44 667.683L2213.58 671.885L2237.32 691.848L2261.47 698.677L2263.13 682.917L2286.45 685.019L2339.75 720.215L2359.32 747.532L2365.15 780.102L2388.05 818.975L2410.12 870.982L2405.96 918.786L2411.37 941.375L2403.04 980.249L2394.3 1018.6L2390.55 1038.03L2371.4 1057.47L2358.49 1058L2336.84 1041.71L2319.76 1066.4L2321.85 1077.43Z" fill="#ECECEC"/>
</svg>
