<svg width="889" height="993" viewBox="0 0 889 993" fill="none" xmlns="http://www.w3.org/2000/svg">
<path d="M730.366 549.486L735.779 576.277H724.12V598.34L728.7 603.068L718.707 609.897L719.539 623.556L714.126 637.214V650.872L709.962 658.227L639.591 641.417L628.348 606.746L627.099 599.391L630.846 597.29L632.512 606.746L650.001 601.492L669.155 602.543L683.313 603.594L697.054 580.479L712.461 558.941L724.953 537.928L730.366 549.486Z" fill="#ECECEC"/>
<path d="M213.613 364.047L229.853 413.427L232.767 421.833L227.354 435.491L224.439 460.706L219.443 478.567L214.446 484.346L206.118 473.314L194.875 458.605L175.304 410.276L173.222 413.427L184.881 448.624L201.121 482.77L221.525 535.302L231.102 553.688L239.43 572.6L261.915 609.898L257.751 615.676L259.417 637.74L287.732 668.208L292.313 675.037H200.288H110.762H17.9049L13.7409 550.536L8.328 430.763L0 403.446L4.5803 382.959L0.416298 368.25L7.4949 351.965L37.476 351.44L59.9612 360.37L82.8632 370.351L93.69 375.604L110.346 365.098L119.09 355.642L138.661 352.49L154.901 356.693L162.396 373.503L166.976 362.471L185.298 370.351L203.203 372.453L213.613 364.047Z" fill="#ECECEC"/>
<path d="M450.545 110.843L458.04 109.792L480.109 85.102L488.021 82.4754L495.932 92.4564L490.935 108.741L507.175 126.602L512.588 124.501L522.998 149.716L545.067 156.546L562.973 173.356L595.035 179.134L628.347 170.204L629.18 162.324L647.502 156.02L659.994 136.583L674.984 137.634L683.312 131.33L699.552 134.482L727.034 151.818L744.939 155.495L775.337 184.913L791.993 186.489L799.071 214.331L796.573 256.357L794.491 281.047L804.901 286.3L798.239 304.686L809.481 331.478L814.478 353.016L832.383 358.794L836.964 380.332L820.724 410.801L834.049 428.662L845.708 449.149L869.443 463.858L873.607 493.276L884.85 499.055L888.597 514.289L857.367 532.15L852.787 571.024L808.649 561.043L782.832 553.163L756.599 548.96L742.857 507.46L731.198 501.681L714.126 507.46L692.889 523.745L663.741 512.713L638.341 486.447L615.439 476.991L597.117 444.947L575.465 400.294L563.805 405.548L548.399 394.516L541.32 407.649L526.746 389.788L524.664 371.927H517.585L518.418 347.237L503.844 322.022L474.279 303.11L455.125 271.066L457.207 244.8L466.784 233.242L463.037 213.806L447.213 203.299L427.643 163.375L411.819 136.583L414.734 126.077L402.659 87.7286L416.4 77.7474L421.397 90.8805L434.721 106.115L450.545 110.843Z" fill="#ECECEC"/>
<path d="M427.643 163.375L447.213 203.299L463.037 213.806L466.784 233.242L457.207 244.8L455.125 271.066L474.279 303.11L503.844 322.022L518.418 347.237L517.585 371.927H524.664L526.746 389.788L541.32 407.649L527.579 406.073L512.172 402.921L498.431 435.491L455.958 432.864L386.003 365.098L350.192 341.459L321.877 332.003L308.969 291.028L354.773 255.831L358.937 215.382L353.94 190.691L365.183 182.286L373.927 161.273L382.671 156.02L408.905 160.748L417.649 169.153L427.643 163.375Z" fill="#ECECEC"/>
<path d="M242.761 294.705L244.427 308.363L241.929 313.617H242.345L239.43 324.123L230.686 319.92L227.771 341.984L234.017 345.661L228.604 350.389L228.187 359.319L238.597 355.117L240.263 368.25L232.768 421.833L229.853 413.427L213.613 364.047L219.443 353.016L217.777 350.914L222.358 335.155L224.856 309.939L227.355 301.009H227.771H235.266L236.932 295.23L242.761 294.705Z" fill="#ECECEC"/>
<path d="M321.877 332.003L318.13 337.256L274.824 354.066L299.808 388.212L293.146 393.465L290.231 405.023L273.159 409.75L268.578 421.833L259.834 432.339L234.017 426.561L232.768 421.833L240.263 368.25L238.597 355.117L241.096 345.136L239.43 324.123L242.345 313.617L268.578 327.275L308.969 291.028L321.877 332.003Z" fill="#ECECEC"/>
<path d="M527.579 406.073L533.825 420.782L532.575 428.662L542.569 453.877L526.329 454.928L519.251 438.643L498.431 435.491L512.172 402.921L527.579 406.073Z" fill="#ECECEC"/>
<path d="M242.761 294.705L236.932 295.23L235.266 301.009H227.771L233.184 273.167L242.345 249.528V248.477L252.755 250.053L257.752 263.186L246.509 276.319L242.761 294.705Z" fill="#ECECEC"/>
<path d="M678.732 855.223L669.571 831.583L647.918 775.899L715.791 742.279L726.618 675.038L714.126 650.873V637.214L719.539 623.556L718.706 609.898L728.7 603.068L724.119 598.341V576.277H735.779L748.271 599.391L762.012 611.474L779.084 616.202L793.242 621.98L805.317 641.417L812.396 652.449L820.724 657.177L821.557 664.531L814.478 684.493L811.563 693.949L802.403 704.981L795.324 728.095L784.914 725.994L780.75 734.399L777.835 751.209L782.415 773.798L780.333 778H769.923L756.182 790.608L754.933 806.893L749.936 814.248L735.362 813.722L727.034 822.127L727.867 835.786L717.041 845.241L704.132 842.09L689.142 853.647L678.732 855.223Z" fill="#ECECEC"/>
<path d="M730.366 549.486L724.953 537.928L730.782 526.897L733.697 529.523L732.864 543.707L730.366 549.486Z" fill="#ECECEC"/>
<path d="M239.43 324.123L241.096 345.136L238.597 355.117L228.187 359.319L228.604 350.389L234.017 345.661L227.771 341.984L230.686 319.92L239.43 324.123Z" fill="#ECECEC"/>
<path d="M621.685 586.258L615.439 588.885L607.944 582.056L604.613 557.366L609.193 540.03L615.439 536.353L622.934 546.859L625.016 566.296L621.685 586.258Z" fill="#ECECEC"/>
<path d="M498.431 435.491L519.251 438.643L526.329 454.928L542.569 453.877L553.812 483.295L565.887 490.65L570.884 502.732L587.54 516.916L590.455 530.574L588.789 542.131L592.537 553.163L600.032 562.619L603.78 573.65L607.944 582.055L615.439 588.885L621.685 586.258L627.098 599.391L628.347 606.746L639.59 641.417L709.962 658.227L714.126 650.873L726.618 675.037L715.791 742.278L647.918 775.899L581.711 789.032L560.891 804.266L546.317 839.463L535.49 845.241L529.244 834.21L520.5 835.786L497.598 832.108L493.017 828.956L466.368 829.482L460.122 832.634L450.128 824.228L444.715 840.513L448.046 854.697L438.053 865.729L434.305 851.02L426.81 841.039L424.728 827.38L411.819 815.298L398.078 786.931L390.167 759.614L373.094 736.5L362.684 730.721L345.612 698.677L341.864 675.563V655.6L326.874 617.777L315.215 604.644L302.723 597.815L293.978 578.378L294.811 571.024L287.316 553.163L280.237 545.808L269.827 520.593L254.004 493.802L241.095 470.688H229.853L231.935 452.301L232.351 440.219L234.017 426.56L259.833 432.339L268.578 421.833L273.158 409.75L290.231 405.022L293.145 393.465L299.808 388.212L274.824 354.066L318.129 337.256L321.877 332.003L350.192 341.459L386.003 365.098L455.958 432.864L498.431 435.491Z" fill="#ECECEC"/>
<path d="M308.969 291.028L268.578 327.275L242.345 313.617H241.929L244.427 308.363L242.761 294.705L246.509 276.319L257.752 263.186L252.755 250.053L242.345 248.477L237.765 222.736L241.929 208.552L247.342 201.198L252.339 193.843L251.506 175.457L259.417 181.761L282.736 172.305L295.228 178.609H313.549L337.284 166.001L349.36 166.527L373.927 161.273L365.183 182.286L353.94 190.691L358.937 215.382L354.773 255.831L308.969 291.028Z" fill="#ECECEC"/>
<path d="M336.867 16.8103L359.769 15.2343L383.088 32.0445L388.501 43.6016L388.917 59.8865L406.406 68.2917L416.4 77.7474L402.659 87.7286L414.734 126.077L411.819 136.583L427.643 163.375L417.649 169.153L408.905 160.748L382.671 156.02L373.927 161.273L349.359 166.527L337.284 166.001L313.549 178.609H295.227L282.735 172.305L259.417 181.761L251.505 175.457L252.338 193.843L247.341 201.198L241.928 208.552L232.351 193.318L239.43 180.71L226.105 183.862L206.951 175.982L193.626 195.419L160.314 199.097L140.743 181.236L117.008 180.185L112.844 193.843L97.8541 198.046L75.3684 180.185L51.217 180.71L35.3941 147.09L17.905 128.704L26.233 102.438L11.2427 86.1526L32.479 54.108L65.791 53.0574L72.4533 27.3167L114.093 32.0445L137.412 10.5064L161.563 1.05063L196.957 0L237.764 23.6394L270.66 36.7725L294.811 31.5193L313.965 34.6711L336.867 16.8103Z" fill="#ECECEC"/>
<path d="M678.732 855.222L662.076 864.153L658.329 879.387V890.944L635.843 905.128L599.2 920.888L579.629 944.527L569.219 946.628L562.14 944.527L548.815 958.711L534.241 965.014L514.671 966.59L508.841 968.692L504.261 977.622L498.015 980.249L494.683 988.654L483.024 987.603L475.945 992.331L459.289 990.755L452.627 970.793V952.407L448.463 942.426L443.05 917.736L435.555 904.077L440.135 901.976L437.22 886.742L439.719 880.438L438.053 865.729L448.047 854.697L444.715 840.513L450.129 824.229L460.122 832.634L466.368 829.482L493.018 828.956L497.598 832.108L520.5 835.786L529.245 834.21L535.491 845.241L546.317 839.463L560.891 804.266L581.711 789.032L647.919 775.899L669.571 831.583L678.732 855.222Z" fill="#ECECEC"/>
</svg>
