<svg width="3090" height="2270" viewBox="0 0 3090 2270" fill="none" xmlns="http://www.w3.org/2000/svg">
<path d="M1188.82 2094.98H1181.74L1187.16 2057.16L1190.07 2030.37L1190.49 2025.11L1193.4 2023.54L1197.15 2027.74L1207.56 2007.25L1212.14 2006.73L1211.72 2011.98H1215.89L1214.64 2021.43L1209.23 2035.62L1210.89 2040.87L1207.14 2052.95L1208.39 2056.11L1204.23 2073.44L1198.82 2082.37L1194.24 2083.42L1188.82 2094.98Z" fill="#ECECEC"/>
<path d="M1990.39 980.249L1980.4 980.774L1956.25 970.793L1941.67 955.033L1949.58 952.407L1974.15 960.812L1991.64 974.47L1990.39 980.249Z" fill="#ECECEC"/>
<path d="M708.296 999.686L695.388 1004.41L669.155 989.704V978.147L657.079 966.59L658.328 957.135L640.423 951.356L642.922 933.495L649.168 926.141L666.24 932.97L676.234 938.223L693.306 941.375L694.139 952.932L695.804 968.166L709.129 981.825L708.296 999.686Z" fill="#ECECEC"/>
<path d="M2120.31 928.767L2099.49 957.135L2115.73 946.103L2127.8 953.457L2117.81 964.489L2133.63 973.42L2145.29 965.54L2163.2 975.521L2151.54 999.686L2167.36 993.907L2166.11 1011.24L2168.19 1031.73L2153.2 1061.15L2143.21 1062.2L2131.14 1055.89L2141.55 1029.1L2136.55 1024.9L2106.15 1053.27L2093.66 1052.22L2111.98 1036.46L2093.66 1028.58L2070.76 1030.68L2030.78 1029.63L2029.95 1020.17L2045.77 1008.09L2038.69 999.686L2061.18 979.723L2095.32 927.717L2112.81 909.33L2133.63 898.299L2142.38 899.349L2136.13 908.28L2120.31 928.767Z" fill="#ECECEC"/>
<path d="M1748.05 461.757L1744.3 474.89L1755.54 470.162L1761.79 478.042L1776.36 488.548L1792.19 497.479L1786.36 511.663L1800.93 509.561L1808.84 519.542L1788.02 528.998L1763.45 521.644L1760.12 507.985L1733.89 524.27L1699.74 539.505L1702.66 522.169L1676.43 524.796L1700.16 510.087L1715.15 486.447L1736.39 459.656L1748.05 461.757Z" fill="#ECECEC"/>
<path d="M1935.01 418.155L1914.61 419.731L1917.52 405.548L1933.35 389.263L1951.25 385.586L1960.83 393.465L1954.58 405.548L1950.83 409.75L1935.01 418.155Z" fill="#ECECEC"/>
<path d="M1845.48 1111.05L1836.32 1092.14L1848.4 1047.49L1841.74 1038.03L1826.33 1043.29L1821.75 1034.88L1798.85 1059.57L1785.52 1085.31L1773.86 1100.55L1763.45 1105.8L1756.38 1107.38L1751.79 1115.26H1713.07L1680.59 1115.78L1669.35 1121.56L1641.03 1144.67V1144.15L1637.28 1142.05L1628.96 1146.78L1621.05 1153.6L1613.55 1147.83L1593.98 1152.03L1577.74 1156.76L1569.83 1160.96L1560.25 1171.99L1567.75 1175.67L1574.82 1173.57H1576.07L1574.82 1183.55L1554.84 1187.23L1543.18 1191.43L1536.1 1196.68L1525.27 1193.53L1518.61 1195.11L1506.54 1204.56L1487.38 1215.07L1476.14 1212.97L1484.47 1201.41L1499.87 1183.02L1516.95 1171.99L1521.53 1162.54L1525.27 1146.78L1541.1 1128.39L1544.84 1107.38L1549.42 1127.86L1565.25 1132.59L1575.24 1121.56L1569.41 1096.34L1565.66 1085.84L1549.01 1079.53L1533.18 1075.86H1516.95L1502.79 1071.65L1501.12 1064.3L1495.29 1069.03L1490.3 1067.98L1498.21 1056.95L1490.71 1052.74L1498.62 1040.14L1493.63 1030.68L1500.71 1021.22L1479.05 1016.5L1478.64 997.584L1475.31 993.382L1461.56 992.331L1444.49 986.027L1438.25 990.23L1430.75 998.11L1417.01 1003.36L1404.1 1016.5L1381.62 1007.57L1363.29 1011.77L1347.05 1001.79L1327.9 996.534L1314.16 994.432L1309.99 989.179L1313.74 971.318H1306.66L1301.25 983.926H1258.78H1187.99H1118.03H1055.99H994.363H933.152H870.276H850.289H789.078H730.366H727.451L704.965 951.881L698.303 937.698L669.155 924.039L674.568 895.147L689.558 875.71L672.486 861.526L685.394 835.786L676.65 812.671L687.06 795.861L708.296 780.627L721.621 760.665L702.467 740.702L708.296 704.455L712.877 682.392L706.214 668.208L702.883 655.601L705.382 639.316L678.316 649.297L646.669 666.632L645.42 646.67L643.338 633.012L631.679 624.607L614.19 623.556L762.428 451.776L864.863 344.611L889.847 351.44L903.588 365.098L918.995 367.725L945.228 356.168L974.376 347.237L996.445 350.389L1033.5 338.307L1067.65 331.477L1068.48 343.035L1087.22 336.205L1103.46 323.072L1112.2 326.224L1118.03 351.44L1157.59 332.003L1141.35 353.541L1166.34 348.813L1179.66 340.933L1198.82 342.509L1215.06 354.066L1246.29 364.573L1265.86 369.301L1284.18 367.725L1296.25 382.434L1260.86 396.617L1287.51 402.396L1337.06 399.244L1355.38 393.991L1361.21 411.326L1390.78 397.143L1382.03 384.535L1400.77 375.079L1422.42 373.503L1438.66 370.877L1447.41 377.706L1453.65 392.94L1474.47 390.839L1496.54 403.972L1526.52 399.244L1551.51 399.769L1561.5 381.908L1580.24 377.18L1600.64 386.636L1582.74 413.953L1608.55 390.839L1621.88 391.889L1648.53 362.997L1641.87 345.661L1629.79 334.104L1652.69 303.11L1686.84 283.148L1705.57 287.876L1713.9 299.958L1715.57 331.477L1691.42 345.136L1719.32 350.914L1700.99 379.807L1738.05 357.744L1747.21 376.13L1729.31 397.143L1734.72 416.579L1765.12 396.092L1792.19 370.877L1811.76 339.883L1834.66 341.984L1857.14 346.186L1872.13 360.37L1865.06 374.554L1843.82 389.788L1847.57 405.022L1837.57 419.206L1792.19 439.694L1765.12 444.421L1751.79 435.491L1738.05 450.2L1707.24 474.89L1694.75 488.023L1662.69 507.985L1635.62 510.087L1614.38 522.694L1602.31 542.657L1578.57 546.334L1542.35 571.024L1503.2 605.17L1482.38 629.334L1461.98 665.582L1486.96 670.835L1480.72 699.727L1477.39 723.892L1507.78 717.588L1536.93 731.247L1550.67 743.329L1557.75 758.038L1578.16 766.969L1593.15 780.102L1624.79 782.203L1644.78 785.355L1629.79 812.671L1622.71 844.716L1623.13 880.963L1641.45 911.957L1661.02 901.451L1684.34 867.83L1693.92 817.399L1686.84 800.589L1724.31 785.355L1755.54 763.291L1775.53 741.228L1782.61 720.215L1780.94 693.424L1767.62 669.784L1804.68 637.214L1808.84 609.372L1825.08 562.093L1840.9 554.739L1868.8 563.144L1886.29 566.296L1905.03 557.891L1917.94 568.397L1932.93 586.258L1933.76 597.815L1965.82 600.442L1955 626.183L1945.42 665.056L1961.24 670.31L1967.91 688.696L2002.05 671.36L2033.28 636.689L2050.77 622.505L2055.35 650.347L2066.18 689.746L2074.5 727.569L2060.35 747.532L2080.33 765.393L2092.41 783.254L2121.14 791.659L2131.14 801.64V828.956L2145.29 833.159L2149.87 845.241L2141.55 881.489L2123.64 893.571L2106.15 905.128L2069.51 916.685L2036.61 942.951L2000.8 948.73L1958.75 941.375H1928.35L1906.28 943.476L1882.54 967.116L1851.73 981.825L1809.67 1024.9L1776.78 1055.37L1796.35 1050.12L1841.74 1006.51L1892.95 979.198L1924.6 976.046L1938.34 992.331L1912.94 1014.39L1910.44 1049.59L1910.86 1074.81L1934.18 1091.09L1969.99 1086.36L1999.97 1049.07L1995.81 1073.23L2006.22 1085.31L1975.4 1106.85L1923.77 1126.81L1899.62 1139.95L1869.64 1164.11L1854.23 1161.48L1860.48 1133.64L1903.78 1105.8L1870.05 1106.85L1845.48 1111.05Z" fill="#ECECEC"/>
<path d="M1402.02 250.578L1382.45 263.186L1426.17 255.306L1437 268.964L1467.39 254.781L1474.89 263.711L1465.73 290.502L1483.63 279.471L1495.29 251.629L1513.2 247.426L1525.69 251.629L1534.85 262.66L1523.61 289.452L1513.61 308.889L1531.1 322.547L1551.92 336.205L1541.1 348.288L1511.53 350.914L1514.86 361.421L1501.54 371.927L1473.64 367.725L1449.9 359.845L1428.67 361.421L1389.11 371.402L1342.06 375.604L1309.16 378.231L1310.41 364.573L1293.34 357.218L1275.43 360.37L1272.93 337.781L1286.68 334.629L1317.07 329.902L1339.98 331.477L1365.79 326.224L1338.73 319.92L1300.83 322.022L1277.1 321.496V311.515L1325.82 299.958L1299.58 300.484L1277.1 293.129L1309.58 272.642L1331.23 261.61L1390.36 245.325L1402.02 250.578Z" fill="#ECECEC"/>
<path d="M1852.98 249.527L1854.23 266.338L1884.21 244.8L1932.93 233.768L1942.51 261.61L1929.18 279.471L1966.66 271.591L1988.73 260.559L2017.04 274.218L2032.45 287.351L2027.87 299.433L2062.01 293.129L2069.92 310.99L2104.9 322.022L2114.06 333.053L2117.81 359.845L2079.92 372.978L2111.98 391.889L2136.55 398.193L2150.29 424.459L2177.36 426.561L2163.61 447.048L2118.23 481.194L2101.57 468.586L2085.75 440.219L2061.18 443.896L2051.6 461.232L2062.85 478.042L2081.58 491.7L2085.75 499.58L2085.33 529.524L2070.34 551.062L2050.77 542.657L2014.96 519.017L2029.95 544.758L2041.61 563.144L2040.36 573.65L1994.97 561.568L1963.33 543.707L1947.5 529.524L1957.5 520.593L1937.51 505.359L1917.94 491.175L1914.19 499.58L1859.64 504.308L1849.65 494.327L1872.13 472.264L1905.86 471.738L1944.59 468.061L1943.76 457.555L1956.66 442.846L1993.31 414.478L1994.97 401.345L1992.89 391.889L1973.32 377.706L1943.76 368.25L1958.33 360.895L1950 343.035L1935.84 341.459L1927.93 332.003L1914.19 340.408L1881.3 344.085L1823 337.781L1792.19 329.376L1767.62 325.174L1759.71 315.193L1785.94 302.585H1762.2L1775.95 274.743L1805.51 250.578L1830.49 239.546L1877.13 232.192L1852.98 249.527Z" fill="#ECECEC"/>
<path d="M1643.11 231.141L1658.1 236.92L1689.75 233.242L1687.67 241.122L1662.27 254.255L1678.09 265.812L1656.44 290.502L1621.46 301.009L1607.3 298.908L1603.56 288.401L1578.99 267.388L1586.07 258.458L1616.88 261.61L1613.13 244.274L1643.11 231.141Z" fill="#ECECEC"/>
<path d="M1737.22 260.034L1704.74 280.521L1686.42 279.471L1693.92 255.306L1704.74 242.173L1722.23 230.616L1743.88 223.261L1776.78 224.312L1802.6 230.616L1760.54 254.781L1737.22 260.034Z" fill="#ECECEC"/>
<path d="M1807.59 146.039L1817.17 154.444H1847.98L1853.81 162.849L1842.15 172.305L1855.06 178.084L1860.06 184.388L1880.46 185.438L1901.7 187.54L1931.26 182.286L1964.99 179.66L1989.14 181.761L1998.72 191.742L1994.56 202.249L1979.57 209.603L1951.67 215.382L1933.76 211.704L1884.63 215.907L1851.31 216.432L1828 213.28L1792.19 204.875L1798.85 190.166L1807.59 177.558L1801.76 166.001L1772.61 162.849L1761.79 154.97L1777.61 144.463L1807.59 146.039Z" fill="#ECECEC"/>
<path d="M2310.6 9.98111L2346.83 11.5571L2374.73 14.1837L2396.38 19.4369L2391.8 24.6901L2350.99 33.6205L2313.52 37.8231L2296.86 42.551H2328.09L2284.37 55.684L2256.06 61.9879L2217.33 80.3741L2183.6 84.0513L2170.69 89.3046L2123.64 91.4058L2141.96 94.5578L2128.22 98.7603L2131.14 110.843L2110.32 119.248L2081.58 126.077L2067.01 135.533L2039.53 143.413L2037.45 149.191L2064.51 148.14L2059.93 154.444L2007.05 169.679L1971.65 162.324L1922.94 166.527L1902.12 163.375L1873.8 161.799L1882.54 149.716L1915.86 143.938L1924.18 126.077L1935.01 124.501L1966.24 135.007L1959.16 119.248L1938.76 114.52L1959.58 105.064L1991.22 99.2857L2002.88 90.8805L1990.39 81.9501L1994.97 70.393L2034.11 70.9183L2043.27 73.5449L2073.67 65.1398L2043.27 62.5132L1990.81 64.0892L1972.49 56.7347L1969.16 47.8042L1958.75 41.5004L1963.33 34.6712L1988.31 30.4686L2005.8 29.9433L2036.61 26.7914L2064.93 18.9116L2081.17 19.9622L2091.16 25.7407L2111.98 15.2343L2133.63 12.0824L2160.7 9.98111L2204.01 8.93046L2209.42 11.0317L2252.31 7.87982L2281.46 8.93046L2310.6 9.98111Z" fill="#ECECEC"/>
<path d="M2889.82 2.10128L2972.68 17.8609L2944.78 25.2154L2890.65 26.266L2813.61 28.3673L2819.44 32.0446L2870.66 29.418L2911.05 36.7725L2940.2 30.4686L2950.19 37.8231L2931.46 50.4308L2969.76 42.0257L3040.97 34.1459L3082.61 38.3484L3089.69 47.2789L3028.06 62.5132L3018.9 67.7664L2971.43 71.969L3005.16 73.0196L2984.76 89.8299L2969.76 105.064L2964.77 132.381L2980.17 149.191L2955.61 149.716L2928.54 158.122L2954.77 171.78L2954.36 193.843L2936.87 196.47L2953.94 219.059L2917.71 221.16L2934.37 231.667L2927.71 241.122L2903.97 245.325L2881.07 245.85L2898.56 263.711L2896.48 276.319L2866.08 264.762L2856.09 272.116L2876.91 278.945L2896.06 295.756L2898.56 318.344L2867.75 323.598L2856.5 312.566L2839.02 296.806L2841.1 315.718L2818.61 330.427L2863.17 331.477L2886.07 333.053L2836.52 357.744L2785.72 380.332L2732.83 389.788L2713.68 390.313L2693.28 401.345L2662.05 431.814L2619.57 452.301L2607.08 453.877L2581.68 460.706L2554.2 468.061L2534.21 485.922L2528.38 506.935L2514.22 526.897L2478.41 551.062L2479.66 574.701L2464.67 599.916L2447.6 629.86L2420.53 631.961L2399.71 606.746L2362.24 606.22L2348.91 589.41L2345.58 559.992L2325.59 522.169L2322.68 502.732L2328.93 475.941L2313.52 449.149L2327.26 427.611L2319.35 417.105L2348.5 383.484L2378.48 372.453L2389.3 360.895L2400.96 338.832L2378.06 348.813L2367.23 353.016L2350.16 356.693L2332.67 347.762L2338.92 328.326L2351.41 313.617L2367.23 313.091L2398.88 320.971L2376.81 303.11L2365.57 293.654L2347.25 297.332L2336.42 290.502L2365.57 265.287L2360.16 254.781L2355.57 236.394L2349.75 208.027L2334.75 198.046L2340.58 187.014L2306.86 171.78L2274.79 169.679L2232.74 170.729L2193.18 172.831L2180.27 164.425L2164.45 148.141L2210.25 140.261L2241.9 139.21L2181.1 132.381L2154.04 122.4L2163.2 112.944L2228.57 101.387L2291.03 89.8299L2302.69 81.4247L2268.96 73.0196L2288.12 64.0892L2349.33 48.8548L2371.81 46.7536L2372.65 37.2978L2410.12 31.5193L2455.93 28.3673H2499.23L2510.89 34.6712L2555.03 23.1141L2584.59 30.9939L2603.75 32.5699L2629.57 39.3991L2601.67 28.3673L2608.33 19.4369L2661.21 7.87981L2709.51 8.93046L2730.75 1.57596L2780.3 0L2889.82 2.10128Z" fill="#ECECEC"/>
<path d="M1190.07 2030.37L1187.16 2057.16L1181.74 2094.98H1188.82L1195.9 2101.28L1198.4 2096.03L1204.65 2100.23L1192.99 2113.37L1180.91 2122.82L1178.83 2129.13L1180.08 2135.95L1174.66 2144.36L1168.83 2146.46L1170.08 2150.66L1165.09 2154.34L1156.76 2162.75L1155.51 2167.47L1143.85 2161.7L1129.28 2161.17L1119.28 2154.34L1107.62 2140.68L1109.29 2130.7L1112.62 2122.82L1109.71 2116.52L1123.45 2089.2H1153.43L1155.09 2077.64L1151.76 2075.54L1149.68 2068.19L1141.77 2060.31L1134.27 2049.28L1144.68 2048.75L1146.77 2029.84H1168.42L1190.07 2030.37Z" fill="#ECECEC"/>
<path d="M1321.24 2124.92L1313.33 2124.4L1309.58 2129.13L1301.25 2133.33H1295.42L1290.01 2137.53L1285.43 2136.48L1281.68 2131.23L1279.18 2132.28L1275.43 2140.16L1273.35 2139.63L1272.52 2146.99L1263.77 2155.92L1258.78 2160.12L1256.28 2164.32L1250.03 2157.49L1244.2 2166.42H1239.21L1233.79 2166.95L1232.96 2183.76H1229.63L1226.3 2191.64L1218.8 2193.21L1215.47 2182.71L1208.39 2179.56L1211.31 2165.9L1208.39 2162.22L1203.4 2160.12L1192.99 2163.8L1192.57 2159.59L1185.91 2153.82L1181.33 2147.51L1174.66 2144.36L1180.08 2135.95L1178.83 2129.13L1180.91 2122.82L1192.99 2113.37L1204.65 2100.23L1207.14 2101.81L1212.56 2096.03L1219.22 2095.5L1221.3 2098.13L1225.05 2096.56L1235.88 2099.71L1246.7 2098.66L1254.2 2094.98L1257.53 2091.3L1264.61 2092.88L1270.02 2094.98L1276.27 2094.45L1281.26 2091.3L1291.67 2096.03L1295 2097.08L1301.67 2103.38L1307.91 2110.74L1315.82 2115.99L1321.24 2124.92Z" fill="#ECECEC"/>
<path d="M1028.51 1759.3L1037.67 1758.25L1024.34 1788.19L1016.85 1812.36L1009.35 1857.53L1004.77 1873.82L1006.44 1892.21L1011.85 1909.02L1013.52 1934.76L1026.01 1959.97L1029.34 1979.41L1036.42 1995.69L1060.15 2004.62L1068.07 2018.81L1089.72 2009.35L1107.62 2006.2L1125.95 1999.9L1140.94 1994.12L1157.18 1980.46L1164.67 1961.02L1169.67 1932.66L1174.66 1922.67L1191.32 1913.74L1216.72 1905.86L1237.12 1907.44L1251.28 1904.29L1256.28 1911.64L1253.78 1927.93L1239.21 1947.89L1231.71 1968.38L1235.46 1974.16L1230.46 1988.86L1221.72 2015.13L1216.72 2006.2L1212.14 2006.73L1207.56 2007.25L1197.15 2027.74L1193.4 2023.54L1190.49 2025.11L1190.07 2030.37L1168.42 2029.84H1146.77L1144.68 2048.75L1134.27 2049.28L1141.77 2060.31L1149.68 2068.19L1151.76 2075.54L1155.09 2077.64L1153.43 2089.2H1123.45L1109.71 2116.52L1112.62 2122.82L1109.29 2130.7L1107.62 2140.68L1084.31 2104.44L1073.48 2093.4L1055.16 2084.47L1041.83 2087.1L1021.85 2099.71L1009.77 2102.86L994.363 2093.93L977.291 2087.63L957.304 2072.39L940.231 2067.66L915.664 2051.9L897.758 2035.62L893.178 2026.69L880.27 2024.59L857.784 2014.08L849.872 1998.85L827.387 1979.41L818.226 1958.4L814.895 1941.59L822.806 1938.43L821.557 1928.98L828.22 1920.05L829.885 1908.49L823.639 1893.26V1880.12L818.226 1862.79L802.403 1829.17L783.248 1802.9L775.337 1781.89L758.264 1768.23L755.35 1759.82L762.428 1739.34L752.435 1731.46L742.025 1714.65L741.192 1691.53L729.533 1688.38L719.956 1671.05L712.877 1654.24L714.126 1643.73L707.88 1618.51L706.631 1592.77L709.962 1579.64L697.054 1565.98L689.142 1567.56L679.148 1558.63L671.653 1572.29L671.237 1588.04L667.073 1613.79L671.237 1627.44L682.896 1650.56L684.562 1658.96L687.476 1661.06L687.893 1672.62L692.057 1672.1V1694.16L697.47 1702.57L699.552 1714.65L710.795 1731.46L712.46 1762.98L716.624 1777.69L720.372 1793.45L719.123 1811.31L729.949 1812.36L736.612 1827.59L742.858 1842.83L741.608 1849.13L729.949 1861.21H725.785L722.87 1840.72L710.795 1821.29L696.637 1805L686.227 1796.6L691.224 1771.91L690.808 1753.52L682.063 1743.01L669.155 1728.31L665.407 1732.51L661.243 1723.58L648.751 1715.7L639.59 1695.74L641.672 1693.63L650.417 1695.21L661.66 1682.6L665.824 1667.37L653.748 1643.2L642.922 1634.27L639.59 1613.26L637.092 1590.67L633.761 1563.88L632.928 1533.41L659.161 1530.79L688.726 1527.11L684.978 1533.94L714.126 1550.22L759.514 1573.86H804.485H822.39L825.721 1559.68H864.863L870.276 1571.76L879.02 1582.79L889.014 1597.5L892.345 1614.84L894.011 1633.75L903.588 1643.73L920.244 1653.71L940.231 1627.44L958.969 1626.39L972.294 1640.05L978.956 1663.17L982.704 1683.13L992.698 1702.04L993.53 1725.68L997.278 1741.44L1013.52 1751.95L1028.51 1759.3Z" fill="#ECECEC"/>
<path d="M1321.24 2124.92L1319.16 2128.6L1317.07 2135.95L1318.74 2148.04L1312.49 2159.59L1309.16 2173.25L1307.08 2187.96L1307.91 2196.89L1307.5 2212.13L1303.75 2215.28L1300.83 2229.99L1301.67 2238.92L1296.67 2247.32L1297.09 2256.25L1300.42 2262.03L1294.59 2269.39L1287.51 2266.76L1284.18 2259.93L1276.68 2257.3L1271.27 2261.51L1256.28 2252.58L1252.53 2256.78L1245.04 2246.27L1234.63 2232.61L1230.05 2221.58L1220.88 2210.55L1210.47 2195.32L1213.39 2190.06L1216.72 2195.32L1218.8 2193.21L1226.3 2191.64L1229.63 2183.76H1232.96L1233.79 2166.95L1239.21 2166.42H1244.2L1250.03 2157.49L1256.28 2164.32L1258.78 2160.12L1263.77 2155.92L1272.52 2146.99L1273.35 2139.63L1275.43 2140.16L1279.18 2132.28L1281.68 2131.23L1285.43 2136.48L1290.01 2137.53L1295.42 2133.33H1301.25L1309.58 2129.13L1313.33 2124.4L1321.24 2124.92Z" fill="#ECECEC"/>
<path d="M1208.39 2179.56L1205.48 2187.44L1191.74 2186.91L1183.41 2183.76L1174.25 2176.93L1161.76 2174.83L1155.51 2167.47L1156.76 2162.75L1165.09 2154.34L1170.08 2150.66L1168.83 2146.46L1174.66 2144.36L1181.33 2147.51L1185.91 2153.82L1192.57 2159.59L1192.99 2163.8L1203.4 2160.12L1208.39 2162.22L1211.31 2165.9L1208.39 2179.56Z" fill="#ECECEC"/>
<path d="M1404.1 1016.5L1378.7 1027L1359.13 1040.14L1339.98 1054.32L1337.89 1059.05L1361.63 1052.22L1370.37 1063.25L1389.53 1055.37L1409.93 1044.34L1432.42 1033.31L1419.51 1050.64L1429.92 1054.84L1440.33 1067.45L1461.56 1060.1L1482.8 1057.47L1484.05 1066.93L1490.3 1067.98L1495.29 1069.03L1501.54 1082.16L1481.97 1085.31H1481.55L1466.14 1081.64L1447.41 1087.94L1432 1091.09L1412.43 1112.63L1399.94 1124.71L1401.6 1128.39L1424.5 1106.85H1427.42L1407.85 1132.59L1395.77 1155.71L1385.36 1174.62L1382.86 1190.9L1379.53 1198.78L1377.03 1207.71L1377.45 1225.05L1378.7 1227.67L1386.2 1227.15L1392.86 1223.47L1398.69 1219.27L1412.43 1202.98L1419.92 1180.92L1419.51 1160.43L1425.34 1146.25L1436.16 1129.97L1444.91 1118.41L1456.15 1110.53L1454.49 1121.56L1463.65 1105.28L1469.06 1102.12L1476.14 1089.52L1491.96 1096.34L1503.62 1108.95L1500.29 1124.19L1493.63 1139.42L1477.8 1152.55L1476.14 1160.96H1480.3L1498.21 1146.78L1504.87 1149.93L1502.79 1169.36L1499.87 1183.02L1484.47 1201.41L1476.14 1212.97L1464.9 1225.57L1476.14 1232.4L1486.55 1234.5L1503.2 1229.78L1518.61 1220.85L1531.1 1216.12L1550.26 1206.66L1574.41 1186.7L1574.82 1183.55L1576.07 1173.57L1587.32 1169.36L1603.56 1170.94L1620.21 1173.57L1639.37 1162.54L1641.87 1149.4L1641.03 1144.67L1669.35 1121.56L1680.59 1115.78L1713.07 1115.26H1751.79L1756.38 1107.38L1763.45 1105.8L1773.86 1100.55L1785.52 1085.31L1798.85 1059.57L1821.75 1034.88L1826.33 1043.29L1841.74 1038.03L1848.4 1047.49L1836.32 1092.14L1845.48 1111.05L1846.32 1122.09L1819.67 1137.84L1794.68 1149.4L1769.7 1159.38L1753.04 1179.35L1747.63 1186.7L1742.63 1204.56L1745.55 1221.9L1754.29 1222.95L1755.13 1210.86L1759.71 1218.22L1755.54 1227.67L1739.72 1232.93L1729.31 1232.4L1711.82 1238.18L1702.24 1239.76L1689.33 1241.33L1668.51 1251.31L1702.24 1245.01L1706.82 1251.31L1673.93 1261.3H1660.19L1661.85 1257.09L1653.11 1266.55L1658.94 1268.12L1648.53 1292.29L1626.46 1318.03L1626.87 1309.1L1622.29 1307.52L1617.3 1299.12V1317.5L1621.46 1323.28L1618.96 1335.89L1608.97 1349.02L1590.23 1375.82L1588.57 1374.76L1600.64 1351.65L1592.31 1339.04L1596.48 1310.68L1588.57 1325.38V1346.92L1575.24 1341.67L1587.73 1352.18L1581.49 1384.22L1587.32 1386.85V1398.4L1583.15 1432.02L1564 1456.71L1538.6 1466.7L1520.28 1486.66L1508.62 1488.76L1494.46 1501.37L1489.05 1512.4L1460.31 1534.46L1444.49 1550.75L1429.92 1570.71L1422.01 1594.35V1617.99L1424.5 1646.88L1430.75 1670.52L1428.67 1685.23L1434.08 1724.1L1429.92 1747.22L1427.42 1760.35L1419.09 1780.84L1411.6 1785.04L1400.77 1780.84L1399.1 1766.13L1391.61 1758.25L1383.28 1729.36L1376.62 1703.62L1374.95 1690.48L1383.28 1667.89L1379.95 1649.51L1367.04 1621.14L1359.13 1615.89L1333.73 1631.65L1329.98 1629.55L1321.65 1613.79L1309.16 1605.38L1282.51 1610.11L1263.36 1605.91L1245.45 1608.53L1235.04 1613.79L1237.54 1622.72L1234.63 1636.37L1237.96 1643.2L1232.96 1647.41L1225.47 1642.68L1215.89 1648.98L1199.65 1647.93L1185.91 1630.07L1165.5 1634.27L1150.51 1626.39L1135.94 1629.02L1115.12 1636.9L1089.72 1661.59L1064.32 1676.3L1048.91 1692.06L1041 1707.29L1036.84 1730.93L1035.17 1746.69L1037.67 1758.25L1028.51 1759.3L1013.52 1751.95L997.278 1741.44L993.53 1725.68L992.698 1702.04L982.704 1683.13L978.956 1663.17L972.294 1640.05L958.969 1626.39L940.231 1627.44L920.244 1653.71L903.588 1643.73L894.011 1633.75L892.345 1614.84L889.014 1597.5L879.02 1582.79L870.276 1571.76L864.863 1559.68H825.721L822.39 1573.86H804.485H759.514L714.126 1550.22L684.978 1533.94L688.726 1527.11L659.161 1530.78L632.928 1533.41L634.177 1516.6L625.433 1497.16L616.272 1492.96L616.688 1483.51L604.613 1481.4L599.616 1472.47L579.629 1469.32L575.881 1463.54L579.212 1445.16L568.802 1411.54L566.72 1364.78L570.468 1356.9L565.055 1345.87L558.809 1317.5L566.304 1290.19L562.556 1271.8L578.796 1243.96L590.455 1215.59L595.036 1189.85L617.938 1158.33L634.594 1128.39L651.25 1098.45L669.155 1053.79L676.65 1025.95L678.316 1010.72L684.145 1003.89L708.296 1015.45L704.132 1046.44L713.293 1037.51L723.703 1010.72L730.366 983.926H789.078H850.289H870.276H933.152H994.363H1055.99H1118.03H1187.99H1258.78H1301.25L1306.66 971.318H1313.74L1309.99 989.179L1314.16 994.432L1327.9 996.534L1347.05 1001.79L1363.29 1011.77L1381.62 1007.57L1404.1 1016.5Z" fill="#ECECEC"/>
<path d="M302.723 722.842L273.575 734.924L270.244 726.519L279.821 711.81L306.47 700.778L321.044 696.05L331.871 698.151V708.133L302.723 722.842Z" fill="#ECECEC"/>
<path d="M864.863 344.61L762.428 451.776L614.19 623.556L631.679 624.607L643.338 633.012L645.42 646.67L646.669 666.632L678.316 649.297L705.382 639.315L702.883 655.6L706.214 668.208L712.877 682.392L708.296 704.455L702.467 740.702L721.621 760.665L708.296 780.627L687.06 795.861L684.562 784.304L674.152 773.798L687.893 746.481L681.23 720.74L692.473 691.322L675.401 689.221L645.836 688.696L630.013 679.24L616.272 647.195L602.531 641.417L578.796 630.385L550.481 633.012L525.497 618.828L514.254 605.695L488.021 611.999L473.447 633.537L461.371 635.638L433.889 641.942L408.072 652.449L381.422 659.278L394.747 640.891L429.725 610.423L458.04 600.967L459.706 593.613L420.564 610.423L389.75 630.91L343.114 652.974L343.946 668.208L306.47 690.272L274.408 703.405L246.925 713.386L230.269 727.044L186.131 743.329L167.393 758.038L133.248 771.696L122.005 769.595L96.1884 778L67.0404 789.032L41.64 799.538L0 808.994L1.66557 803.216L35.8104 788.507L63.2928 778.526L99.1032 761.19L126.169 758.038L146.989 744.905L190.295 725.993L199.872 719.69L223.607 708.658L247.758 685.018L273.575 666.632L243.178 676.088L241.928 670.309L221.525 681.867L223.19 666.107L208.2 677.139L214.862 661.904L184.465 673.987H172.806L188.213 655.6L201.954 644.043L200.288 633.012L170.308 639.315L167.809 624.607L162.396 617.252L179.052 599.916L177.386 586.783L201.954 569.448L234.017 552.112L256.086 536.878L273.158 534.777L280.654 539.505L310.218 524.796L320.628 527.422L343.946 517.966L354.356 504.308L349.776 499.055L374.76 487.498L363.101 488.023L337.284 494.327L325.208 501.156L317.713 494.327L288.982 498.004L269.827 490.65L274.824 478.567L270.66 461.757L308.969 449.149L363.934 434.966H378.508L360.602 449.675L398.911 448.624L403.908 430.238L394.331 419.206L397.662 404.497L394.747 392.415L381.006 383.484L408.072 368.25L439.302 367.199L475.945 354.592L495.932 340.933L528.828 327.275L548.815 324.123L595.452 311.515L608.36 313.617L651.666 298.908L669.988 304.686L667.906 317.294L681.647 312.041L707.88 313.617L699.968 319.92L720.372 324.648L740.776 322.022L766.592 330.427L796.573 333.579L805.734 336.731L833.216 332.528L850.289 340.933L864.863 344.61Z" fill="#ECECEC"/>
</svg>
